<?xml version="1.0" encoding="UTF-8"?>
<svg width="667.3" height="400.05" data-name="Layer 1" version="1.1" viewBox="0 0 667.3 400.05" xmlns="http://www.w3.org/2000/svg" xmlns:xlink="http://www.w3.org/1999/xlink">
 <defs>
  <style>.cls-1 {
        fill: url(#linear-gradient);
      }

      .cls-1, .cls-2, .cls-3, .cls-4, .cls-5, .cls-6, .cls-7, .cls-8, .cls-9, .cls-10, .cls-11, .cls-12, .cls-13, .cls-14, .cls-15, .cls-16, .cls-17, .cls-18, .cls-19, .cls-20 {
        stroke-width: 0px;
      }

      .cls-2 {
        fill: url(#linear-gradient-11);
      }

      .cls-3 {
        fill: url(#linear-gradient-12);
      }

      .cls-4 {
        fill: url(#linear-gradient-13);
      }

      .cls-5 {
        fill: url(#linear-gradient-10);
      }

      .cls-6 {
        fill: url(#linear-gradient-17);
      }

      .cls-7 {
        fill: url(#linear-gradient-16);
      }

      .cls-8 {
        fill: url(#linear-gradient-19);
      }

      .cls-9 {
        fill: url(#linear-gradient-15);
      }

      .cls-10 {
        fill: url(#linear-gradient-18);
      }

      .cls-11 {
        fill: url(#linear-gradient-14);
      }

      .cls-12 {
        fill: url(#linear-gradient-20);
      }

      .cls-13 {
        fill: url(#linear-gradient-4);
      }

      .cls-14 {
        fill: url(#linear-gradient-2);
      }

      .cls-15 {
        fill: url(#linear-gradient-3);
      }

      .cls-16 {
        fill: url(#linear-gradient-8);
      }

      .cls-17 {
        fill: url(#linear-gradient-9);
      }

      .cls-18 {
        fill: url(#linear-gradient-7);
      }

      .cls-19 {
        fill: url(#linear-gradient-5);
      }

      .cls-20 {
        fill: url(#linear-gradient-6);
      }</style>
  <linearGradient id="linear-gradient" x1="214.75" x2="214.75" y1="-97.81" y2="962.77" gradientUnits="userSpaceOnUse">
   <stop stop-color="#8d5840" offset="0"/>
   <stop stop-color="#f4bca1" offset=".55"/>
   <stop stop-color="#8d5840" offset="1"/>
  </linearGradient>
  <linearGradient id="linear-gradient-2" x1="556.89" x2="556.89" y1="-97.81" y2="962.77" xlink:href="#linear-gradient"/>
  <linearGradient id="linear-gradient-3" x1="457.63" x2="457.63" y1="-97.81" y2="962.77" xlink:href="#linear-gradient"/>
  <linearGradient id="linear-gradient-4" x1="770.58" x2="770.58" y1="-97.81" y2="962.77" xlink:href="#linear-gradient"/>
  <linearGradient id="linear-gradient-5" x1="342.2" x2="342.2" y1="-97.81" y2="962.77" xlink:href="#linear-gradient"/>
  <linearGradient id="linear-gradient-6" x1="645.44" x2="645.44" y1="-97.81" y2="962.77" xlink:href="#linear-gradient"/>
  <linearGradient id="linear-gradient-7" x1="236.45" x2="236.45" y1="-97.81" y2="962.77" xlink:href="#linear-gradient"/>
  <linearGradient id="linear-gradient-8" x1="278.05" x2="278.05" y1="-97.81" y2="962.77" xlink:href="#linear-gradient"/>
  <linearGradient id="linear-gradient-9" x1="347.11" x2="347.11" y1="-97.81" y2="962.77" xlink:href="#linear-gradient"/>
  <linearGradient id="linear-gradient-10" x1="389.29" x2="389.29" y1="-97.81" y2="962.77" xlink:href="#linear-gradient"/>
  <linearGradient id="linear-gradient-11" x1="422.82" x2="422.82" y1="-97.81" y2="962.77" xlink:href="#linear-gradient"/>
  <linearGradient id="linear-gradient-12" x1="457.49" x2="457.49" y1="-97.81" y2="962.77" xlink:href="#linear-gradient"/>
  <linearGradient id="linear-gradient-13" x1="500.68" x2="500.68" y1="-97.81" y2="962.77" xlink:href="#linear-gradient"/>
  <linearGradient id="linear-gradient-14" x1="572.35" x2="572.35" y1="-97.81" y2="962.77" xlink:href="#linear-gradient"/>
  <linearGradient id="linear-gradient-15" x1="621.09" x2="621.09" y1="-97.81" y2="962.77" xlink:href="#linear-gradient"/>
  <linearGradient id="linear-gradient-16" x1="667.21" x2="667.21" y1="-97.81" y2="962.77" xlink:href="#linear-gradient"/>
  <linearGradient id="linear-gradient-17" x1="715.64" x2="715.64" y1="-97.81" y2="962.77" xlink:href="#linear-gradient"/>
  <linearGradient id="linear-gradient-18" x1="763.43" x2="763.43" y1="-97.81" y2="962.77" xlink:href="#linear-gradient"/>
  <linearGradient id="linear-gradient-19" x1="633.32" x2="633.32" y1="-97.81" y2="962.77" xlink:href="#linear-gradient"/>
  <linearGradient id="linear-gradient-20" x1="465.39" x2="465.39" y1="-97.81" y2="962.77" xlink:href="#linear-gradient"/>
  <linearGradient id="linearGradient18" x1="214.75" x2="214.75" y1="-97.81" y2="962.77" gradientUnits="userSpaceOnUse" xlink:href="#linear-gradient"/>
 </defs>
 <g transform="translate(-166.35,-299.97)">
  <path class="cls-1" d="m237.7 435.61h-40.95v-121.06c0-5.61 4.55-10.16 10.16-10.16v-1.97h-40.56v1.97c5.61 0 10.16 4.55 10.16 10.16v115.57c0 5.61-4.55 10.16-10.16 10.16v1.97h96.8v-30.11h-1.97c0 12.96-10.51 23.47-23.47 23.47z" fill="url(#linearGradient18)"/>
  <path class="cls-14" d="m577.17 440.28c-5.61 0-10.16-4.55-10.16-10.16v-115.57c0-5.61 4.55-10.16 10.16-10.16v-1.97h-40.56v1.97c5.61 0 10.16 4.55 10.16 10.16v115.57c0 5.61-4.55 10.16-10.16 10.16v1.97h40.56z" fill="url(#linear-gradient-2)"/>
  <path class="cls-15" d="m401.9 310.37 53.28 131.89h5.92l53.29-131.89c1.46-3.61 4.96-5.97 8.85-5.97v-1.97h-20.56v1.97c3.33 0 5.6 3.37 4.35 6.46l-41.55 102.84-41.55-102.84c-1.25-3.09 1.02-6.46 4.35-6.46h0.52v-1.97h-36.78v1.97h1.03c3.89 0 7.39 2.36 8.85 5.97z" fill="url(#linear-gradient-3)"/>
  <path class="cls-13" d="m833.65 304.39v-1.97h-40.56v1.97c5.61 0 10.16 4.55 10.16 10.16v49.6h-65.36v-49.6c0-5.61 4.55-10.16 10.16-10.16v-1.97h-40.56v1.97c5.61 0 10.16 4.55 10.16 10.16v115.57c0 5.61-4.55 10.16-10.16 10.16v1.97h40.56v-1.97c-5.61 0-10.16-4.55-10.16-10.16v-59.34h65.36v59.34c0 5.61-4.55 10.16-10.16 10.16v1.97h40.56v-1.97c-5.61 0-10.16-4.55-10.16-10.16v-115.57c0-5.61 4.55-10.16 10.16-10.16z" fill="url(#linear-gradient-4)"/>
  <path class="cls-19" d="m309.27 393.05h50.16l16.47 40.77c1.25 3.09-1.03 6.46-4.35 6.46h-0.52v1.97h36.78v-1.97c-4.51 0-8.58-2.74-10.27-6.93l-52.89-130.93h-5.92l-53.29 131.89c-1.46 3.61-4.96 5.97-8.85 5.97v1.97h20.56v-1.97c-3.33 0-5.6-3.37-4.35-6.46zm25.08-62.07 22.4 55.43h-44.79l22.4-55.43z" fill="url(#linear-gradient-5)"/>
  <path class="cls-20" d="m669.86 414.28c0 15.2-11.29 25.01-29.52 25.01s-30.4-10-33-25.79c-0.43-2.5-0.88-5.57-0.88-8.27h-1.97v39.44h35.41c30.38 0 48.18-17.7 48.18-41.37 0-45.78-67.29-40.59-67.29-76.38 0-14.42 11.07-21.74 26.27-21.74 12.07 0 22.47 4.76 28.65 16.82l1.87-0.3-7.69-18.92c-7.21-1.34-13.86-2.81-23.26-2.81-26.05 0-43.85 15.77-43.85 37.71 0 42.71 67.08 39.25 67.08 76.57z" fill="url(#linear-gradient-6)"/>
  <path class="cls-18" d="m242.82 684.53c1.24-0.6 2.21-1.45 2.93-2.54s1.07-2.32 1.07-3.69c0-2.31-0.86-4.16-2.58-5.55s-3.98-2.08-6.79-2.08h-12.5v28.89h13.04c3 0 5.41-0.75 7.22-2.25 1.82-1.5 2.72-3.49 2.72-5.96 0-1.57-0.46-2.94-1.38-4.13-0.92-1.18-2.17-2.08-3.74-2.68zm-13.53-10.2h7.92c1.62 0 2.92 0.39 3.88 1.16s1.44 1.82 1.44 3.14-0.48 2.37-1.44 3.14-2.26 1.16-3.88 1.16h-7.92v-8.58zm12.67 20.24c-1.07 0.87-2.5 1.3-4.29 1.3h-8.38v-9.49h8.38c1.79 0 3.22 0.44 4.29 1.32s1.61 2.02 1.61 3.43-0.54 2.58-1.61 3.45z" fill="url(#linear-gradient-7)"/>
  <polygon class="cls-16" points="264.24 670.66 275.88 688.16 275.88 699.55 280.21 699.55 280.21 688.12 291.85 670.66 287.06 670.66 278.15 684.28 269.28 670.66" fill="url(#linear-gradient-8)"/>
  <polygon class="cls-17" points="351.86 683.12 340.72 683.12 340.72 674.45 357.68 674.45 357.68 670.66 336.38 670.66 336.38 699.55 357.84 699.55 357.84 695.75 340.72 695.75 340.72 686.84 351.86 686.84" fill="url(#linear-gradient-9)"/>
  <polygon class="cls-5" points="378.81 699.55 399.77 699.55 399.77 695.71 383.14 695.71 383.14 670.66 378.81 670.66" fill="url(#linear-gradient-10)"/>
  <rect class="cls-2" x="420.66" y="670.66" width="4.33" height="28.89" fill="url(#linear-gradient-11)"/>
  <polygon class="cls-3" points="455.32 699.55 459.66 699.55 459.66 674.5 469.81 674.5 469.81 670.66 445.17 670.66 445.17 674.5 455.32 674.5" fill="url(#linear-gradient-12)"/>
  <polygon class="cls-4" points="505.43 683.12 494.28 683.12 494.28 674.45 511.25 674.45 511.25 670.66 489.95 670.66 489.95 699.55 511.41 699.55 511.41 695.75 494.28 695.75 494.28 686.84 505.43 686.84" fill="url(#linear-gradient-13)"/>
  <polygon class="cls-11" points="557.51 670.66 557.51 699.55 561.55 699.55 561.55 676.02 572.33 697.48 583.1 675.98 583.1 699.55 587.18 699.55 587.18 670.66 581.41 670.66 572.37 689.11 563.29 670.66" fill="url(#linear-gradient-14)"/>
  <path class="cls-9" d="m618.63 670.66-11.97 28.89h4.5l3.38-8.46h12.92l3.34 8.46h4.7l-11.8-28.89h-5.08zm-2.64 16.84 5.03-12.67 5.03 12.67h-10.07z" fill="url(#linear-gradient-15)"/>
  <polygon class="cls-7" points="654.99 670.66 654.99 699.55 659.08 699.55 659.08 677.43 675.63 699.55 679.42 699.55 679.42 670.66 675.34 670.66 675.34 692.08 659.24 670.66" fill="url(#linear-gradient-16)"/>
  <path class="cls-6" d="m726.31 674.52c-1.35-1.33-2.94-2.39-4.79-3.16-1.84-0.77-3.81-1.16-5.9-1.16s-4.06 0.39-5.9 1.16-3.43 1.82-4.77 3.16c-1.33 1.33-2.39 2.92-3.18 4.75-0.78 1.83-1.18 3.78-1.18 5.84s0.39 4.01 1.18 5.84c0.78 1.83 1.84 3.41 3.18 4.75 1.33 1.33 2.92 2.39 4.77 3.16 1.84 0.77 3.81 1.16 5.9 1.16s4.06-0.39 5.9-1.16 3.44-1.82 4.79-3.16c1.35-1.33 2.42-2.92 3.2-4.75s1.18-3.78 1.18-5.84-0.39-4.01-1.18-5.84c-0.78-1.83-1.85-3.41-3.2-4.75zm-0.87 14.9c-0.55 1.34-1.3 2.48-2.25 3.45-0.95 0.96-2.08 1.73-3.39 2.29s-2.7 0.85-4.19 0.85-2.88-0.28-4.17-0.85c-1.29-0.56-2.42-1.33-3.36-2.29-0.95-0.96-1.7-2.11-2.25-3.45-0.55-1.33-0.83-2.77-0.83-4.31s0.27-2.98 0.83-4.31c0.55-1.33 1.3-2.49 2.25-3.47s2.07-1.74 3.36-2.29 2.68-0.83 4.17-0.83 2.88 0.28 4.19 0.83 2.44 1.31 3.39 2.29 1.7 2.13 2.25 3.47c0.55 1.33 0.83 2.77 0.83 4.31s-0.28 2.98-0.83 4.31z" fill="url(#linear-gradient-17)"/>
  <path class="cls-10" d="m772.94 684.13c1.07-1.39 1.61-3.03 1.61-4.93 0-2.53-0.89-4.59-2.66-6.17s-4.09-2.37-6.95-2.37h-13.12v28.89h4.33v-11.84h8.13l5.98 11.84h4.79l-6.44-12.42c1.82-0.6 3.26-1.6 4.33-2.99zm-16.79-0.02v-9.66h8.42c1.68 0 3.03 0.44 4.07 1.32 1.03 0.88 1.55 2.05 1.55 3.51s-0.51 2.59-1.55 3.49c-1.03 0.89-2.39 1.34-4.07 1.34z" fill="url(#linear-gradient-18)"/>
  <path class="cls-8" d="m669.71 547.67c-2.74-5.6-9.9-7.99-16.64-7.36-5.59 0.52-10.02 1.09-11.72 1.31-0.43 0.06-0.8-0.29-0.79-0.72 0.05-1.28 0-4.46 2.96-8.65 4.21-5.97 9.16-8.34 10.6-8.79 0.58 1.39 2.15 5.5 7.7 3.45 5.55-2.06 2.26-5.59 0.96-6.75s-4.39-4.75-11.29-1.62c-5.27 2.39-14.22 10.28-17.67 17.62-1.42 2.37-10.89 20.77-30.62 22.97-11.59 0.92-13.31-9.93-9.34-15.78 0.53-0.78 1.41-1.26 2.35-1.29 2.49-0.06 7.85-0.26 10.79-0.87 4.76-0.98 10.74-2.86 11.01-7.56s-9.71-5.82-15.89-4.47c-6.18 1.34-19.15 8.91-19.06 21.26s12.36 14.46 19.87 13.69c8.61-0.88 21.7-6.09 30.55-19.63 2.2 2.55 6.74 2.13 11.74 1.35 5.8-0.91 15.64-0.62 16.87 4.79 0.07 0.31-0.06 0.63-0.3 0.83-1.95 1.6-10.57 8.75-13.03 11.76-2.78 3.4-9.49 12.62-8.24 17.01 1.43 3.58 8.92 1.45 10.97 0.36 7.28-3.87 20.31-13.9 19.04-29.18 2.02-1.01 4.44-1.95 7.11-2.42 3.13-0.82 5.68 0.54 5.93-2.19 0.21-2.3-6.38-1.94-13.86 0.9zm-64.93-13.91c3.18-0.92 4.01 0.13 4.1 0.49s0.25 1.68-2.26 2.35-7.34 1.16-8.43 0.98c0 0 3.42-2.91 6.6-3.83zm51.35 37.52c-2.48 2.8-6.53 5.71-8.92 6.37-0.38 0.11-0.75-0.22-0.69-0.62 0.21-1.39 1.13-4.66 5.18-9.54 4.45-5.36 8.83-9.12 10.34-10.36 0.2-0.17 0.5 0 0.47 0.25-0.28 2.74-0.45 7.2-6.38 13.89z" fill="url(#linear-gradient-19)"/>
  <path class="cls-12" d="m568.88 552.38c-0.11 2.74-0.19 5.33-0.23 7.68-0.36 21.12-0.88 40.55 3.68 43.59 2.86 1.52 5.36-0.31 4.89-2.26s-0.81-2.15-1.14-6.18c-0.34-4.03-1.53-25.84 0.63-55.2 0.67-9.14 4.73-54.24 5.01-57.36 16.72-3.02 29.95-5.32 32.16-7.91 1.08-1 0.23-3.89-1.62-3.21s-2.01 0.93-5.91 1.93c-2.37 0.6-11.13 2.4-24.12 4.68 0.71-6.18 1.07-7.74 2.39-11.54 0.55-1.59 1.27-2.36 1.84-2.72 0.66-0.41 1.06-1.18 0.97-1.95-0.14-1.17-0.97-2.42-3.6-2.42-4.07 0-5.73 2.95-6.62 5.77-0.72 2.27-1.9 7.35-2.68 14.18-6.73 1.13-14.28 2.33-22.45 3.54-8.08 1.19-23.48 3.64-38.38 5.7 1.68-10.08 4.91-20.88 6.05-21.3 1.26-0.47-0.02-3.54-3.27-3.71-3.24-0.18-5.24 0.69-7.07 6.11-0.89 2.62-2.32 10.06-3.72 20.01-4.24 0.71-22.26 3.66-26.38 3.55-1.63-0.05-2.48-0.36-2.9-0.66-0.49-0.35-1.29-0.45-2.04-0.24-1.13 0.32-2.26 1.09-1.92 2.78 0.52 2.62 2.44 3.76 5.32 3.78 2.34 0.02 17.88-2.81 27.19-4.25-1.05 8.61-2.11 17.91-2.93 32.72-0.26 4.72-0.46 9.61-0.64 14.51-2.99 0.32-8.21 1.34-12.9 4.55-2.97-8.67-17.96-6.87-24-5.55-1.96 0.43-3.29 0.42-4.12 0.35-0.71-0.07-1.22-0.72-1.15-1.43 0.16-1.77 0.49-6.42 4.5-11.09 5.73-6.67 8.72-5.78 8.72-5.78s0.92 2.95 2.94 3.59c2.01 0.64 4.63 0.07 6.14-0.71 2.51-1.28 2.08-4.23-0.44-6.18s-9.93-5.13-18.34 1.32c-4.19 3.21-7.26 6.12-10.6 14.73-7.16 18.71-18.6 56.69-62.96 73.16-41.5 14.14-68.79-18.47-63.06-48.18 5.73-29.72 27.75-48.15 47.44-54.78 12.35-3.58 17.27-2.95 20.5-3.31 3.22-0.36 3.65-2.38 3.62-3.76-0.03-1.27-1.38-3.08-5.57-3.07-4.36 0.01-18.46 0.34-22.35-2.55s-9.46-7.79 0.4-20.88c6.78-7.65 18.12-14.16 27.92-11.81 6.51 1.61 7.25 10.32 5.44 13.47-1.52 3-4.73 5.56-1.14 8.34 4.83 2.82 10.11-0.29 11.81-7.18s1.01-17.59-11.81-22.35c-12.82-4.77-40.28 4.23-46.05 25.84-4.79 15.62 9.53 21.62 9.53 21.62s-47.19 18.87-49.41 67.93c-0.43 33.3 24.45 46.77 40.95 49.67 19.97 3.51 50.19-0.3 75.88-32.99 10.8-13.74 17.28-27.66 20.98-38.19 0.29-0.82 1.14-1.34 1.98-1.13 4.05 1.02 10.02-0.65 11.52-0.93 5.18-0.95 12.01 0.2 12.95 6.18 0 0-12.2 8.88-17.74 17.83-5.55 8.95-4.34 11.37-2.46 12.71s12.87 0.18 19.56-8.09c5.91-7.3 8.77-13.43 8.94-22.37 2.83-1.72 7.71-4.34 12.26-5.1-0.68 21.12-0.66 41.62 0.37 48.26 1.25 6.71 2.19 9.18 6.53 8.64 2.19-0.4 1.12-3 0.72-5.82s-2.02-19.71-0.47-46.23c1.73-29.49 3.18-46.6 4.58-57.2 14.57-2.24 57.85-8.9 59.78-9.26 0.44-0.08 0.87-0.16 1.31-0.24-0.73 8.1-4.18 46.79-5.01 64.28-2.44 2.57-9.72 9.61-14.96 8.47-6.05-1.32-3.52-8.78-2.11-12.6s4.53-9.63 0.83-10.99c-3.16-1.16-6.51 1.15-6.92 3.17-5.97-3.68-15.12-4.6-23.99 5.14-8.86 9.73-7.59 16.97-5.64 19.77 1.68 2.62 9.26 5.54 15.91 1.11s10.2-11.14 10.2-11.14-0.03 9.78 7.12 11.43c9.5 2.19 14.59-1.6 19.38-10.3zm-93.27 14.96c-4.58 7.3-7.82 9.32-9.54 9.82-0.51 0.15-0.98-0.32-0.86-0.84 0.31-1.27 1.15-3.72 3.49-6.95 2.9-4 8.76-9.59 10.69-11.4 0.2-0.18 0.51 0 0.44 0.26-0.4 1.5-1.51 4.87-4.23 9.11zm68.08-26.34c-1.43 3.85-7.4 11.38-10.31 14.33-3.09 3.13-7.05 4.94-9.22 3.4-2.61-1.85 1.1-11.9 7.07-17.41 4.91-4.52 10.3-2.28 12.07-1.33 0.37 0.2 0.53 0.62 0.39 1.01z" fill="url(#linear-gradient-20)"/>
 </g>
</svg>
