<?xml version="1.0" encoding="UTF-8"?>
<svg width="695.71" height="217.85" data-name="Layer 1" version="1.1" viewBox="0 0 695.71 217.85" xmlns="http://www.w3.org/2000/svg">
 <defs>
  <style>.cls-1 {
        fill: #fff;
        stroke-width: 0px;
      }</style>
 </defs>
 <g transform="translate(-192.15,-448.75)">
  <path class="cls-1" d="m209.73 636.9v3.46h-14.12v7.2h13.8v3.46h-13.8v7.8h14.12v3.46h-17.58v-25.38z"/>
  <path class="cls-1" d="m226.57 636.9v21.92h12.13v3.46h-15.55v-25.38h3.41z"/>
  <path class="cls-1" d="m251.62 636.9h3.46v25.38h-3.46z"/>
  <path class="cls-1" d="m268.23 636.9h19.61v3.46h-8.07v21.92h-3.46v-21.92h-8.07v-3.46z"/>
  <path class="cls-1" d="m318.57 636.9v3.46h-14.12v7.2h13.8v3.46h-13.8v7.8h14.12v3.46h-17.58v-25.38z"/>
  <path class="cls-1" d="m534.09 636.67v25.38h-3.46v-18.5l-8.12 13.15h-2.21l-8.12-13.15v18.5h-3.46v-25.38h3.28l9.41 15.27 9.41-15.27h3.28z"/>
  <path class="cls-1" d="m560.16 636.67 11.26 25.38h-3.78l-2.49-5.58h-12.78l-2.49 5.58h-3.78l11.26-25.38h2.81zm-6.28 16.38h9.74l-4.89-11.07-4.84 11.07z"/>
  <path class="cls-1" d="m605.33 636.67v25.38h-2.72l-15.73-19.01v19.01h-3.46v-25.38h2.68l15.73 19.06v-19.06h3.51z"/>
  <path class="cls-1" d="m631.07 662.28c-1.75 0-3.38-0.33-4.89-0.99s-2.81-1.57-3.92-2.72-1.98-2.51-2.61-4.08-0.95-3.28-0.95-5.12 0.32-3.56 0.95-5.14 1.5-2.95 2.61-4.11c1.11-1.15 2.41-2.05 3.92-2.7s3.14-0.97 4.89-0.97 3.38 0.32 4.89 0.97 2.81 1.55 3.9 2.7 1.95 2.52 2.58 4.11c0.63 1.58 0.95 3.3 0.95 5.14s-0.32 3.55-0.95 5.12-1.49 2.93-2.58 4.08-2.39 2.06-3.9 2.72-3.14 0.99-4.89 0.99zm0-22.38c-1.29 0-2.48 0.24-3.58 0.72-1.09 0.48-2.03 1.13-2.81 1.96s-1.4 1.82-1.85 2.98c-0.45 1.15-0.67 2.42-0.67 3.81s0.22 2.65 0.67 3.81c0.45 1.15 1.06 2.15 1.85 2.98 0.78 0.83 1.72 1.48 2.81 1.96s2.28 0.72 3.58 0.72 2.48-0.24 3.55-0.72c1.08-0.48 2.01-1.13 2.79-1.96s1.4-1.82 1.85-2.98c0.45-1.15 0.67-2.42 0.67-3.81s-0.22-2.65-0.67-3.81c-0.45-1.15-1.06-2.15-1.85-2.98-0.78-0.83-1.72-1.48-2.79-1.96-1.08-0.48-2.26-0.72-3.55-0.72z"/>
  <path class="cls-1" d="m675.92 662.05h-4.38l-7.38-10.15h-3.92v10.15h-3.46v-25.38h10.15c1.2 0 2.31 0.18 3.32 0.53 1.02 0.35 1.89 0.87 2.63 1.55s1.31 1.48 1.73 2.4 0.62 1.97 0.62 3.14c0 2.09-0.63 3.82-1.89 5.19s-2.94 2.18-5.03 2.42zm-15.69-21.92v8.3h6.69c1.51 0 2.69-0.37 3.55-1.11s1.29-1.75 1.29-3.05-0.43-2.31-1.29-3.04c-0.86-0.74-2.05-1.11-3.55-1.11h-6.69z"/>
  <path class="cls-1" d="m474.13 448.75c8.78 0.23 14.69 2.65 17.73 7.26 3.04 4.62 3.49 10.08 1.35 16.38-2.14 6.31-5.23 12.44-9.29 18.41-4.05 5.97-8.22 10.64-12.5 14.02-1.35 2.7-4.11 5.57-8.27 8.61-4.17 3.04-8.16 5.69-11.99 7.94s-7.26 4.62-10.3 7.09c-3.04 2.48-4.22 5.18-3.55 8.11 0.68 2.93 3.49 5.97 8.44 9.12 6.08-3.15 10.58-3.6 13.51-1.35 2.7 2.03 3.04 4.62 1.01 7.77-2.93 4.28-7.88 4.73-14.86 1.35-29.27 6.98-55.39 19.25-78.35 36.81-6.53 4.28-11.48 10.47-14.86 18.58s-4.28 16.38-2.7 24.82c1.57 8.44 5.63 15.14 12.16 20.1 8.78 4.73 18.12 6.42 28.03 5.07s19.02-4.17 27.36-8.44c8.33-4.28 16.21-9.79 23.64-16.55 4.95-4.27 9.79-9.46 14.52-15.54 13.73-16.89 14.3-25.89 1.69-27.02-7.88-4.05-10.25-8.78-7.09-14.18 2.48-4.5 6.53-6.64 12.16-6.42 6.75 0.23 10.35 4.73 10.81 13.51 1.35-0.45 6.64-2.08 15.87-4.9 9.23-2.81 15.14-4.56 17.73-5.23 2.59-0.68 7.88-2.08 15.87-4.22s14.02-3.6 18.07-4.39 9.4-1.8 16.04-3.04c6.64-1.23 12.78-2.03 18.41-2.36 5.63-0.34 11.26-0.51 16.89-0.51 1.8 0 3.49 0.34 5.07 1.01 3.38 1.35 3.6 3.04 0.68 5.07-31.07 1.35-57.87 5.4-80.38 12.16-3.16 1.8-7.83 3.38-14.02 4.73-6.2 1.35-11.48 2.53-15.87 3.55-4.39 1.01-8.27 3.16-11.65 6.42-3.38 3.27-5.07 7.71-5.07 13.34-7.21 14.86-17.62 27.64-31.24 38.33-13.63 10.69-28.43 17.61-44.41 20.77-8.78 2.47-17.56 2.2-26.34-0.84s-15.7-8.33-20.77-15.87c-5.07-7.55-6.81-15.93-5.24-25.16 0-6.08 1.29-11.87 3.88-17.39 2.59-5.51 5.63-10.24 9.12-14.18s8.05-7.88 13.68-11.82 10.58-7.03 14.86-9.29c4.27-2.25 9.57-4.84 15.87-7.77 1.35-1.12 3.09-2.2 5.24-3.21 2.14-1.01 4.05-1.74 5.74-2.2 1.69-0.45 4.11-1.12 7.26-2.03 4.27-1.35 7.43-2.36 9.46-3.04s3.99-1.74 5.91-3.21c1.91-1.46 2.42-3.26 1.52-5.4s-3.16-4.56-6.75-7.26c-36.7 19.14-77 29.16-120.91 30.06-1.35 0.68-2.76 0.73-4.22 0.17s-2.42-1.52-2.87-2.87 0-2.48 1.35-3.38c41.2-1.57 77.45-9.34 108.75-23.3 5.18-0.68 8.66-2.14 10.47-4.39 1.8-2.25 2.25-4.73 1.35-7.43s-1.97-6.19-3.21-10.47c-1.24-4.27-1.86-7.88-1.86-10.81 1.57-13.96 7.99-26.29 19.25-36.98s23.86-16.72 37.83-18.07zm-0.33 6.75c-12.16 1.13-23.42 6.87-33.77 17.22-10.36 10.36-15.65 21.62-15.87 33.77 0 7.88 1.29 13.06 3.88 15.54s6.3 2.36 11.15-0.34c4.84-2.7 8.89-5.35 12.16-7.94 3.26-2.59 7.37-6.13 12.33-10.64l0.68-0.68c7.88-5.85 14.3-13.73 19.25-23.64 7.43-14.41 4.16-22.17-9.79-23.3z"/>
  <path class="cls-1" d="m743.98 478.47c2.48 0 4.5 1.01 6.08 3.04 1.57 2.03 2.36 4.39 2.36 7.09-0.68 7.21-2.25 15.03-4.73 23.47s-4.9 15.42-7.26 20.94-5.74 13.06-10.13 22.63-7.49 16.5-9.29 20.77c1.35-0.68 3.43-2.53 6.25-5.57 2.81-3.04 6.13-6.92 9.96-11.65s6.3-7.77 7.43-9.12c0.45-0.45 1.35-1.46 2.7-3.04 0.9-1.12 1.57-1.91 2.03-2.36 18.91-22.74 29.83-26.34 32.76-10.81-0.68 5.18-1.69 10.64-3.04 16.38s-2.65 10.75-3.88 15.03c-1.24 4.28-3.16 9.74-5.74 16.38-2.59 6.64-4.45 11.48-5.57 14.52-1.13 3.04-3.32 8.39-6.59 16.04-3.27 7.66-5.35 12.5-6.25 14.52 18.24-19.81 38.55-35.85 60.96-48.13 22.4-12.27 45.76-18.63 70.08-19.08 1.12-0.68 2.36-0.62 3.72 0.17 1.35 0.79 2.03 1.8 2.03 3.04s-0.56 2.31-1.69 3.21c-19.14 0.23-37.88 4.11-56.23 11.65-18.35 7.55-35.07 17.96-50.15 31.24-5.4 3.83-12.5 10.64-21.28 20.43s-15.54 16.49-20.26 20.1c-1.58-3.83-1.35-8.27 0.68-13.34s4.73-10.58 8.11-16.55c3.38-5.96 5.4-10.86 6.08-14.69 1.12-2.92 3.38-8.72 6.75-17.39 3.38-8.67 5.85-15.25 7.43-19.76 1.57-4.5 3.21-10.35 4.9-17.56 1.69-7.2 2.64-13.85 2.87-19.93-4.28 2.48-8.33 5.63-12.16 9.46s-8.16 8.78-13 14.86-8.16 10.13-9.96 12.16c-2.7 1.8-6.25 5.91-10.64 12.33s-8.61 11.54-12.66 15.37-7.88 4.73-11.48 2.7c2.92-8.11 7.99-20.04 15.2-35.8 7.2-15.76 12.38-27.69 15.54-35.8 0.22-1.12 0.68-2.7 1.35-4.73 5.4-14.63 8.22-23.53 8.44-26.68 0.45-5.63-1.92-7.77-7.09-6.42-7.66 7.21-14.92 15.37-21.78 24.49-6.87 9.12-14.47 20.09-22.8 32.93-8.33 12.83-14.41 21.95-18.24 27.36-2.25 2.25-5.29 6.7-9.12 13.34s-7.66 11.99-11.48 16.04c-3.83 4.05-8.11 5.52-12.83 4.39 0.9-6.98 2.81-14.02 5.74-21.11 2.92-7.09 6.87-15.14 11.82-24.15 4.95-9 8.44-15.65 10.47-19.93-16.44 15.54-39.51 23.87-69.23 24.99-2.03 0.9-4.79 1.07-8.27 0.51-3.49-0.56-4.78-2.31-3.88-5.24 1.58-1.8 5.57-2.53 11.99-2.2 6.42 0.34 10.75 0.06 13-0.84 13.51-1.35 26.45-5.79 38.84-13.34 12.38-7.54 22.63-17.06 30.73-28.54 0.22-1.35 1.01-2.42 2.36-3.21s2.7-0.95 4.05-0.51c1.35 0.45 2.03 1.47 2.03 3.04-18.91 34.23-32.08 60.12-39.51 77.68 7.2-9.46 16.89-23.25 29.04-41.37 12.16-18.12 20.38-30.23 24.65-36.31 1.57-1.57 4.84-5.96 9.79-13.17 4.95-7.2 9.51-12.66 13.68-16.38 4.16-3.72 8.95-6.25 14.35-7.6z"/>
 </g>
</svg>
