<?xml version="1.0" encoding="UTF-8"?>
<!-- Created with Inkscape (http://www.inkscape.org/) -->
<svg width="163.56mm" height="193.39mm" version="1.1" viewBox="0 0 163.56 193.39" xmlns="http://www.w3.org/2000/svg">
 <defs>
  <linearGradient id="linearGradient3" x2="1" gradientTransform="matrix(0 856.29 -856.29 0 117.95 -303.35)" gradientUnits="userSpaceOnUse">
   <stop offset="0"/>
   <stop offset=".55317"/>
   <stop offset="1"/>
  </linearGradient>
  <linearGradient id="linearGradient6" x2="1" gradientTransform="matrix(0 856.29 -856.29 0 75.78 -303.35)" gradientUnits="userSpaceOnUse">
   <stop offset="0"/>
   <stop offset=".55317"/>
   <stop offset="1"/>
  </linearGradient>
  <linearGradient id="linearGradient9" x2="1" gradientTransform="matrix(0 856.29 -856.29 0 156.52 -303.35)" gradientUnits="userSpaceOnUse">
   <stop offset="0"/>
   <stop offset=".55317"/>
   <stop offset="1"/>
  </linearGradient>
  <linearGradient id="linearGradient12" x2="1" gradientTransform="matrix(0 856.29 -856.29 0 126.22 -303.35)" gradientUnits="userSpaceOnUse">
   <stop offset="0"/>
   <stop offset=".55317"/>
   <stop offset="1"/>
  </linearGradient>
 </defs>
 <g transform="translate(-21.59 -23.85)">
  <path d="m108.51 46.776c0.28011 0.05151 0.55951 0.1083 0.83714 0.17462 6.9995 1.7321 7.7932 11.095 5.8448 14.487-1.6358 3.2233-5.0871 5.9715-1.2266 8.9666 5.1957 3.0307 10.873-0.31327 12.701-7.722 1.8281-7.4087 1.0823-18.906-12.701-24.03-1.6182-0.60184-3.4657-0.98249-5.4554-1.1769z" fill="url(#linearGradient3)"/>
  <path d="m67.288 23.85v2.4007h3.53e-4c6.8312 0 12.369 5.5379 12.369 12.369v43.94c-0.28187-0.14605-0.54187-0.29986-0.76447-0.46496-3.5175-2.6074-8.298-6.7504-3.4421-16.356v-16.653c-5.0789 4.5156-9.1091 10.305-10.991 17.35-5.1474 16.79 10.247 23.236 10.247 23.236s-51.087 18.694-53.112 73.029c-0.46284 35.793 26.289 50.282 44.02 53.401 17.125 3.0124 41.268 0.99589 64.355-17.784h-12.588c-5.5122 3.4265-11.391 6.2145-17.606 8.1008-45.1 13.688-74.177-17.956-67.793-51.799 6.0304-31.969 29.831-51.765 50.999-58.885 13.278-3.8492 18.57-3.1757 22.033-3.5602 3.4639-0.38452 4.0305-2.6525 3.9546-4.2129-0.0596-1.2234-1.1031-2.7502-4.6683-3.0625v-46.278c0-6.8308 5.5376-12.369 12.368-12.369v-2.4007z" fill="url(#linearGradient6)"/>
  <path d="m167.31 122.1c-0.93239 15.08-11.396 39.843-30.073 59.719h8.9895c0.32102-0.39264 0.64205-0.78246 0.96096-1.1885 17.376-22.112 25.907-46.782 27.995-56.851 0.74118-3.4286 1.3113-8.3905-1.2573-9.0135-0.40958-0.10795-0.80786-0.15981-1.192-0.15981-2.9908 0-5.1541 3.1394-5.4232 7.4941" fill="url(#linearGradient9)"/>
  <path d="m102.67 96.531c-3.3965 0.14076-8.5238 0.35313-18.428 3.2166-1.5367 0.51964-3.0646 1.1098-4.5822 1.7554v77.835c0 6.8308-5.5376 12.368-12.369 12.368v2.4024h117.86v-36.665h-2.4017c0 15.786-12.797 28.583-28.583 28.583h-49.862v-89.576c-0.51611 0.0321-1.0516 0.0554-1.6341 0.0794" fill="url(#linearGradient12)"/>
 </g>
</svg>
