<?xml version="1.0" encoding="UTF-8"?>
<!-- Generator: Adobe Illustrator 28.1.0, SVG Export Plug-In . SVG Version: 6.00 Build 0)  -->
<svg width="667.3" height="400.2" version="1.1" viewBox="0 0 667.3 400.2" xml:space="preserve" xmlns="http://www.w3.org/2000/svg">
<style type="text/css">
	.st0{fill:#AD6B4D;}
</style>
<g transform="translate(-166.4,-299.9)">
	
		<path class="st0" d="m237.7 435.6h-40.9v-121.1c0-5.6 4.6-10.2 10.2-10.2v-2h-40.6v2c5.6 0 10.2 4.5 10.2 10.2v115.6c0 5.6-4.6 10.2-10.2 10.2v2h96.8v-30.1h-2c0 12.9-10.5 23.4-23.5 23.4z"/>
		<path class="st0" d="m577.2 440.3c-5.6 0-10.2-4.5-10.2-10.2v-115.6c0-5.6 4.5-10.2 10.2-10.2v-2h-40.6v2c5.6 0 10.2 4.5 10.2 10.2v115.6c0 5.6-4.5 10.2-10.2 10.2v2h40.6z"/>
		<path class="st0" d="m401.9 310.4 53.3 131.9h5.9l53.3-131.9c1.5-3.6 5-6 8.8-6v-2h-20.6v2c3.3 0 5.6 3.4 4.4 6.5l-41.5 102.8-41.5-102.8c-1.2-3.1 1-6.5 4.4-6.5h0.5v-2h-36.9v2h1c3.9 0 7.4 2.4 8.9 6z"/>
		<path class="st0" d="m833.7 304.4v-2h-40.6v2c5.6 0 10.2 4.5 10.2 10.2v49.6h-65.4v-49.6c0-5.6 4.5-10.2 10.2-10.2v-2h-40.6v2c5.6 0 10.2 4.5 10.2 10.2v115.6c0 5.6-4.5 10.2-10.2 10.2v2h40.5v-2c-5.6 0-10.2-4.5-10.2-10.2v-59.3h65.4v59.3c0 5.6-4.5 10.2-10.2 10.2v2h40.6v-2c-5.6 0-10.2-4.5-10.2-10.2v-115.6c0.1-5.7 4.6-10.2 10.3-10.2z"/>
		<path class="st0" d="m309.3 393h50.2l16.5 40.8c1.2 3.1-1 6.5-4.4 6.5h-0.6v2h36.8v-2c-4.5 0-8.6-2.7-10.3-6.9l-52.9-130.9h-5.9l-53.3 131.9c-1.5 3.6-5 6-8.9 6v2h20.6v-2c-3.3 0-5.6-3.4-4.4-6.5zm25.1-62 22.4 55.4h-44.8z"/>
		<path class="st0" d="m669.9 414.3c0 15.2-11.3 25-29.5 25s-30.4-10-33-25.8c-0.4-2.5-0.9-5.6-0.9-8.3h-2v39.4h35.4c30.4 0 48.2-17.7 48.2-41.4 0-45.8-67.3-40.6-67.3-76.4 0-14.4 11.1-21.7 26.3-21.7 12.1 0 22.5 4.8 28.7 16.8l1.9-0.3-7.7-18.9c-7.2-1.3-13.9-2.8-23.3-2.8-26 0-43.8 15.8-43.8 37.7-0.1 42.8 67 39.3 67 76.7z"/>
	
	
		<path class="st0" d="m242.8 684.5c1.2-0.6 2.2-1.5 2.9-2.5 0.7-1.1 1.1-2.3 1.1-3.7 0-2.3-0.9-4.2-2.6-5.5s-4-2.1-6.8-2.1h-12.4v28.9h13c3 0 5.4-0.8 7.2-2.2 1.8-1.5 2.7-3.5 2.7-6 0-1.6-0.5-2.9-1.4-4.1-0.9-1.3-2.1-2.2-3.7-2.8zm-13.5-10.2h7.9c1.6 0 2.9 0.4 3.9 1.2s1.4 1.8 1.4 3.1-0.5 2.4-1.4 3.1-2.3 1.2-3.9 1.2h-7.9zm12.7 20.3c-1.1 0.9-2.5 1.3-4.3 1.3h-8.4v-9.5h8.4c1.8 0 3.2 0.4 4.3 1.3s1.6 2 1.6 3.4-0.6 2.6-1.6 3.5z"/>
		<polygon class="st0" points="264.2 670.7 275.9 688.2 275.9 699.5 280.2 699.5 280.2 688.1 291.9 670.7 287.1 670.7 278.1 684.3 269.3 670.7"/>
		<polygon class="st0" points="351.9 683.1 340.7 683.1 340.7 674.5 357.7 674.5 357.7 670.7 336.4 670.7 336.4 699.5 357.8 699.5 357.8 695.8 340.7 695.8 340.7 686.8 351.9 686.8"/>
		<polygon class="st0" points="378.8 699.5 399.8 699.5 399.8 695.7 383.1 695.7 383.1 670.7 378.8 670.7"/>
		<rect class="st0" x="420.7" y="670.7" width="4.3" height="28.9"/>
		<polygon class="st0" points="455.3 699.5 459.7 699.5 459.7 674.5 469.8 674.5 469.8 670.7 445.2 670.7 445.2 674.5 455.3 674.5"/>
		<polygon class="st0" points="505.4 683.1 494.3 683.1 494.3 674.5 511.2 674.5 511.2 670.7 490 670.7 490 699.5 511.4 699.5 511.4 695.8 494.3 695.8 494.3 686.8 505.4 686.8"/>
		<polygon class="st0" points="557.5 670.7 557.5 699.5 561.5 699.5 561.5 676 572.3 697.5 583.1 676 583.1 699.5 587.2 699.5 587.2 670.7 581.4 670.7 572.4 689.1 563.3 670.7"/>
		<path class="st0" d="m618.6 670.7-12 28.9h4.5l3.4-8.5h12.9l3.3 8.5h4.7l-11.8-28.9zm-2.6 16.8 5-12.7 5 12.7z"/>
		<polygon class="st0" points="655 670.7 655 699.5 659.1 699.5 659.1 677.4 675.6 699.5 679.4 699.5 679.4 670.7 675.3 670.7 675.3 692.1 659.2 670.7"/>
		<path class="st0" d="m726.3 674.5c-1.3-1.3-2.9-2.4-4.8-3.2-1.8-0.8-3.8-1.2-5.9-1.2s-4.1 0.4-5.9 1.2-3.4 1.8-4.8 3.2c-1.3 1.3-2.4 2.9-3.2 4.8-0.8 1.8-1.2 3.8-1.2 5.8s0.4 4 1.2 5.8 1.8 3.4 3.2 4.8c1.3 1.3 2.9 2.4 4.8 3.2 1.8 0.8 3.8 1.2 5.9 1.2s4.1-0.4 5.9-1.2 3.4-1.8 4.8-3.2c1.3-1.3 2.4-2.9 3.2-4.8s1.2-3.8 1.2-5.8-0.4-4-1.2-5.8c-0.8-1.9-1.8-3.4-3.2-4.8zm-0.9 14.9c-0.5 1.3-1.3 2.5-2.2 3.5-1 1-2.1 1.7-3.4 2.3s-2.7 0.8-4.2 0.8-2.9-0.3-4.2-0.8c-1.3-0.6-2.4-1.3-3.4-2.3s-1.7-2.1-2.2-3.5c-0.5-1.3-0.8-2.8-0.8-4.3s0.3-3 0.8-4.3 1.3-2.5 2.2-3.5 2.1-1.7 3.4-2.3 2.7-0.8 4.2-0.8 2.9 0.3 4.2 0.8 2.4 1.3 3.4 2.3 1.7 2.1 2.2 3.5c0.5 1.3 0.8 2.8 0.8 4.3s-0.2 3-0.8 4.3z"/>
		<path class="st0" d="m772.9 684.1c1.1-1.4 1.6-3 1.6-4.9 0-2.5-0.9-4.6-2.7-6.2s-4.1-2.4-7-2.4h-13.1v28.9h4.3v-11.8h8.1l6 11.8h4.8l-6.4-12.4c1.9-0.6 3.4-1.6 4.4-3zm-16.7 0v-9.7h8.4c1.7 0 3 0.4 4.1 1.3 1 0.9 1.5 2 1.5 3.5s-0.5 2.6-1.5 3.5-2.4 1.3-4.1 1.3z"/>
	
	
		<path class="st0" d="m669.7 547.7c-2.7-5.6-9.9-8-16.6-7.4-5.6 0.5-10 1.1-11.7 1.3-0.4 0.1-0.8-0.3-0.8-0.7 0-1.3 0-4.5 3-8.7 4.2-6 9.2-8.3 10.6-8.8 0.6 1.4 2.2 5.5 7.7 3.5 5.5-2.1 2.3-5.6 1-6.8s-4.4-4.8-11.3-1.6c-5.3 2.4-14.2 10.3-17.7 17.6-1.4 2.4-10.9 20.8-30.6 23-11.6 0.9-13.3-9.9-9.3-15.8 0.5-0.8 1.4-1.3 2.3-1.3 2.5-0.1 7.8-0.3 10.8-0.9 4.8-1 10.7-2.9 11-7.6s-9.7-5.8-15.9-4.5-19.2 8.9-19.1 21.3c0.1 12.3 12.4 14.5 19.9 13.7 8.6-0.9 21.7-6.1 30.5-19.6 2.2 2.5 6.7 2.1 11.7 1.3 5.8-0.9 15.6-0.6 16.9 4.8 0.1 0.3-0.1 0.6-0.3 0.8-2 1.6-10.6 8.8-13 11.8-2.8 3.4-9.5 12.6-8.2 17 1.4 3.6 8.9 1.5 11 0.4 7.3-3.9 20.3-13.9 19-29.2 2-1 4.4-2 7.1-2.4 3.1-0.8 5.7 0.5 5.9-2.2 0.2-2.2-6.4-1.8-13.9 1zm-64.9-13.9c3.2-0.9 4 0.1 4.1 0.5s0.2 1.7-2.3 2.3-7.3 1.2-8.4 1c0 0 3.4-2.9 6.6-3.8zm51.3 37.5c-2.5 2.8-6.5 5.7-8.9 6.4-0.4 0.1-0.8-0.2-0.7-0.6 0.2-1.4 1.1-4.7 5.2-9.5 4.5-5.4 8.8-9.1 10.3-10.4 0.2-0.2 0.5 0 0.5 0.2-0.3 2.7-0.4 7.2-6.4 13.9z"/>
		<path class="st0" d="m568.9 552.4c-0.1 2.7-0.2 5.3-0.2 7.7-0.4 21.1-0.9 40.5 3.7 43.6 2.9 1.5 5.4-0.3 4.9-2.3s-0.8-2.2-1.1-6.2-1.5-25.8 0.6-55.2c0.7-9.1 4.7-54.2 5-57.4 16.7-3 30-5.3 32.2-7.9 1.1-1 0.2-3.9-1.6-3.2s-2 0.9-5.9 1.9c-2.4 0.6-11.1 2.4-24.1 4.7 0.7-6.2 1.1-7.7 2.4-11.5 0.5-1.6 1.3-2.4 1.8-2.7 0.7-0.4 1.1-1.2 1-2-0.1-1.2-1-2.4-3.6-2.4-4.1 0-5.7 3-6.6 5.8-0.7 2.3-1.9 7.4-2.7 14.2-6.7 1.1-14.3 2.3-22.5 3.5-8.1 1.2-23.5 3.6-38.4 5.7 1.7-10.1 4.9-20.9 6-21.3 1.3-0.5 0-3.5-3.3-3.7-3.2-0.2-5.2 0.7-7.1 6.1-0.9 2.6-2.3 10.1-3.7 20-4.2 0.7-22.3 3.7-26.4 3.5-1.6 0-2.5-0.4-2.9-0.7-0.5-0.4-1.3-0.5-2-0.2-1.1 0.3-2.3 1.1-1.9 2.8 0.5 2.6 2.4 3.8 5.3 3.8 2.3 0 17.9-2.8 27.2-4.2-1 8.6-2.1 17.9-2.9 32.7-0.3 4.7-0.5 9.6-0.6 14.5-3 0.3-8.2 1.3-12.9 4.5-3-8.7-18-6.9-24-5.5-2 0.4-3.3 0.4-4.1 0.3-0.7-0.1-1.2-0.7-1.1-1.4 0.2-1.8 0.5-6.4 4.5-11.1 5.7-6.7 8.7-5.8 8.7-5.8s0.9 3 2.9 3.6 4.6 0.1 6.1-0.7c2.5-1.3 2.1-4.2-0.4-6.2s-9.9-5.1-18.3 1.3c-4.2 3.2-7.3 6.1-10.6 14.7-7.2 18.7-18.6 56.7-63 73.2-41.5 14.1-68.8-18.5-63.1-48.2s27.8-48.2 47.4-54.8c12.4-3.6 17.3-3 20.5-3.3 3.2-0.4 3.6-2.4 3.6-3.8 0-1.3-1.4-3.1-5.6-3.1-4.4 0-18.5 0.3-22.4-2.5-3.9-2.9-9.5-7.8 0.4-20.9 6.8-7.6 18.1-14.2 27.9-11.8 6.5 1.6 7.2 10.3 5.4 13.5-1.5 3-4.7 5.6-1.1 8.3 4.8 2.8 10.1-0.3 11.8-7.2s1-17.6-11.8-22.4-40.3 4.2-46 25.8c-4.8 15.6 9.5 21.6 9.5 21.6s-47.2 18.9-49.4 67.9c-0.4 33.3 24.5 46.8 41 49.7 20 3.5 50.2-0.3 75.9-33 10.8-13.7 17.3-27.7 21-38.2 0.3-0.8 1.1-1.3 2-1.1 4 1 10-0.7 11.5-0.9 5.2-1 12 0.2 13 6.2 0 0-12.2 8.9-17.7 17.8-5.5 9-4.3 11.4-2.5 12.7s12.9 0.2 19.6-8.1c5.9-7.3 8.8-13.4 8.9-22.4 2.8-1.7 7.7-4.3 12.3-5.1-0.7 21.1-0.7 41.6 0.4 48.3 1.2 6.7 2.2 9.2 6.5 8.6 2.2-0.4 1.1-3 0.7-5.8s-2-19.7-0.5-46.2c1.7-29.5 3.2-46.6 4.6-57.2 14.6-2.2 57.8-8.9 59.8-9.3 0.4-0.1 0.9-0.2 1.3-0.2-0.7 8.1-4.2 46.8-5 64.3-2.4 2.6-9.7 9.6-15 8.5-6-1.3-3.5-8.8-2.1-12.6s4.5-9.6 0.8-11c-3.2-1.2-6.5 1.2-6.9 3.2-6-3.7-15.1-4.6-24 5.1s-7.6 17-5.6 19.8c1.7 2.6 9.3 5.5 15.9 1.1 6.7-4.4 10.2-11.1 10.2-11.1s0 9.8 7.1 11.4c9.4 2.4 14.5-1.4 19.3-10.1zm-93.3 14.9c-4.6 7.3-7.8 9.3-9.5 9.8-0.5 0.2-1-0.3-0.9-0.8 0.3-1.3 1.1-3.7 3.5-7 2.9-4 8.8-9.6 10.7-11.4 0.2-0.2 0.5 0 0.4 0.3-0.4 1.5-1.5 4.9-4.2 9.1zm68.1-26.3c-1.4 3.8-7.4 11.4-10.3 14.3-3.1 3.1-7 4.9-9.2 3.4-2.6-1.8 1.1-11.9 7.1-17.4 4.9-4.5 10.3-2.3 12.1-1.3 0.3 0.2 0.4 0.6 0.3 1z"/>
	
</g>
</svg>
