<?xml version="1.0" encoding="UTF-8" standalone="no"?>
<svg
   xmlns:dc="http://purl.org/dc/elements/1.1/"
   xmlns:cc="http://creativecommons.org/ns#"
   xmlns:rdf="http://www.w3.org/1999/02/22-rdf-syntax-ns#"
   xmlns:svg="http://www.w3.org/2000/svg"
   xmlns="http://www.w3.org/2000/svg"
   xmlns:sodipodi="http://sodipodi.sourceforge.net/DTD/sodipodi-0.dtd"
   xmlns:inkscape="http://www.inkscape.org/namespaces/inkscape"
   id="Layer_1"
   data-name="Layer 1"
   viewBox="0 0 203.89751 53.000001"
   version="1.1"
   sodipodi:docname="logo-krittika.svg"
   width="203.89751"
   height="53"
   inkscape:version="0.92.4 (5da689c313, 2019-01-14)">
  <metadata
     id="metadata29">
    <rdf:RDF>
      <cc:Work
         rdf:about="">
        <dc:format>image/svg+xml</dc:format>
        <dc:type
           rdf:resource="http://purl.org/dc/dcmitype/StillImage" />
        <dc:title>logo-krittika</dc:title>
      </cc:Work>
    </rdf:RDF>
  </metadata>
  <sodipodi:namedview
     pagecolor="#ffffff"
     bordercolor="#666666"
     borderopacity="1"
     objecttolerance="10"
     gridtolerance="10"
     guidetolerance="10"
     inkscape:pageopacity="0"
     inkscape:pageshadow="2"
     inkscape:window-width="1920"
     inkscape:window-height="935"
     id="namedview27"
     showgrid="false"
     fit-margin-top="0"
     fit-margin-left="0"
     fit-margin-right="0"
     fit-margin-bottom="0"
     inkscape:zoom="1.3880064"
     inkscape:cx="102.305"
     inkscape:cy="26.585002"
     inkscape:window-x="1912"
     inkscape:window-y="-8"
     inkscape:window-maximized="1"
     inkscape:current-layer="Layer_1" />
  <defs
     id="defs4">
    <style
       id="style2">.cls-1{fill:#000;}</style>
  </defs>
  <title
     id="title6">logo-krittika</title>
  <rect
     class="cls-1"
     x="41.528954"
     y="52.222641"
     width="120.85953"
     height="0.77735984"
     id="rect8"
     style="fill:#000000;stroke-width:0.99661523" />
  <path
     class="cls-1"
     d="M 9.8864232,0.8371568 V 1.2657014 H 7.125799 V 10.883038 H 7.3649866 L 16.563745,1.2657014 H 13.524069 V 0.8371568 H 19.50376 V 1.2657014 H 17.131816 L 10.424595,8.2918388 20.829259,21.815907 h 1.86367 v 0.428545 H 12.657014 v -0.428545 h 2.700827 L 7.3849189,11.301616 H 7.125799 v 10.514291 h 2.7606242 v 0.428545 H 0 V 21.815907 H 2.7606242 V 1.2657014 H 0 V 0.8371568 Z"
     id="path10"
     inkscape:connector-curvature="0"
     style="fill:#000000;stroke-width:0.99661523" />
  <path
     class="cls-1"
     d="M 29.778863,1.2657014 V 0.8371568 h 4.544566 c 0.837157,0 1.674313,0 2.491538,0 0.817224,0 1.654381,-0.0896954 2.501504,-0.0896954 a 12.955998,12.955998 0 0 1 2.471606,0.2491538 7.9729219,7.9729219 0 0 1 2.391877,0.8172245 5.2421962,5.2421962 0 0 1 1.783941,1.5846183 4.1359532,4.1359532 0 0 1 0.707597,2.4915381 3.8369687,3.8369687 0 0 1 -0.538173,2.0829258 4.444904,4.444904 0 0 1 -1.395261,1.3952614 6.9065436,6.9065436 0 0 1 -1.913501,0.8271897 11.770026,11.770026 0 0 1 -2.07296,0.368748 v 0.159459 q 1.474991,0.269087 2.631064,0.538173 a 6.4879652,6.4879652 0 0 1 1.993231,0.807258 3.8469348,3.8469348 0 0 1 1.335464,1.504889 6.8068821,6.8068821 0 0 1 0.617902,2.581234 l 0.239187,2.989844 a 10.893005,10.893005 0 0 0 0.269087,1.783942 1.4849567,1.4849567 0 0 0 0.458443,0.837156 1.3653629,1.3653629 0 0 0 0.82719,0.20929 1.4351259,1.4351259 0 0 0 0.996615,-0.33885 c 0.25912,-0.229221 0.488342,-0.448476 0.687665,-0.6478 l 0.308951,0.269087 c -0.209289,0.199323 -0.398646,0.38868 -0.588003,0.558104 a 2.8004888,2.8004888 0 0 1 -0.657766,0.438511 3.986461,3.986461 0 0 1 -0.926853,0.279052 7.1756297,7.1756297 0 0 1 -1.34543,0.109628 5.3418577,5.3418577 0 0 1 -2.5912,-0.528206 3.5579164,3.5579164 0 0 1 -1.375329,-1.305566 4.3552086,4.3552086 0 0 1 -0.558104,-1.704212 c -0.06976,-0.607936 -0.119594,-1.185972 -0.139526,-1.724145 0,-0.817224 -0.0897,-1.614516 -0.159459,-2.391876 a 6.6773221,6.6773221 0 0 0 -0.51824,-2.033095 3.2290334,3.2290334 0 0 0 -1.176006,-1.445092 3.8070702,3.8070702 0 0 0 -2.212486,-0.548139 h -1.99323 v 10.85314 h 2.77059 v 0.428545 h -9.866491 v -0.428545 h 2.770591 V 1.2657014 Z m 8.361602,9.2784876 A 5.2023316,5.2023316 0 0 0 40.273222,10.185407 2.6709288,2.6709288 0 0 0 41.449228,9.1887925 3.4283564,3.4283564 0 0 0 41.937569,7.7935312 11.899586,11.899586 0 0 0 42.047197,6.1989468 12.308198,12.308198 0 0 0 41.85784,3.986461 3.926664,3.926664 0 0 0 41.259871,2.3918766 2.4716058,2.4716058 0 0 0 40.103797,1.4749906 4.9830762,4.9830762 0 0 0 38.230161,1.176006 q -0.328883,0 -0.657766,0 l -0.697631,0.089695 v 9.278488 z"
     id="path12"
     inkscape:connector-curvature="0"
     style="fill:#000000;stroke-width:0.99661523" />
  <path
     class="cls-1"
     d="M 68.098719,0.8371568 V 1.2657014 H 65.338095 V 21.815907 h 2.760624 v 0.428545 h -9.886423 v -0.428545 h 2.770591 V 1.2657014 H 58.212296 V 0.8371568 Z"
     id="path14"
     inkscape:connector-curvature="0"
     style="fill:#000000;stroke-width:0.99661523" />
  <path
     class="cls-1"
     d="m 83.217373,1.2657014 a 8.0526511,8.0526511 0 0 0 -1.993231,0.2192553 4.1060548,4.1060548 0 0 0 -1.494923,0.787326 4.9830762,4.9830762 0 0 0 -1.235803,1.5447537 13.005829,13.005829 0 0 0 -0.996615,2.5214365 h -0.38868 V 0.8371568 h 18.796164 v 5.5013161 h -0.38868 A 13.005829,13.005829 0 0 0 94.518989,3.8170364 5.0628054,5.0628054 0 0 0 93.293153,2.2722827 4.2156825,4.2156825 0 0 0 91.688602,1.4849567 8.0526511,8.0526511 0 0 0 89.695372,1.2657014 H 88.698756 V 21.815907 h 2.770591 v 0.428545 h -9.936254 v -0.428545 h 2.77059 V 1.2657014 Z"
     id="path16"
     inkscape:connector-curvature="0"
     style="fill:#000000;stroke-width:0.99661523" />
  <path
     class="cls-1"
     d="m 111.02294,1.2657014 a 7.9729219,7.9729219 0 0 0 -1.99323,0.2192553 4.0761563,4.0761563 0 0 0 -1.56469,0.787326 5.23223,5.23223 0 0 0 -1.2358,1.5447537 13.045694,13.045694 0 0 0 -0.99662,2.5214365 h -0.38868 V 0.8371568 h 18.83603 v 5.5013161 h -0.38868 a 13.045694,13.045694 0 0 0 -0.99661,-2.5214365 5.0827377,5.0827377 0 0 0 -1.23581,-1.5447537 4.0761563,4.0761563 0 0 0 -1.56468,-0.787326 7.9729219,7.9729219 0 0 0 -1.99323,-0.2192553 h -1.07635 V 21.815907 h 2.76063 v 0.428545 h -9.88643 v -0.428545 h 2.76063 V 1.2657014 Z"
     id="path18"
     inkscape:connector-curvature="0"
     style="fill:#000000;stroke-width:0.99661523" />
  <path
     class="cls-1"
     d="m 142.51598,0.8371568 v 0.4285446 h -2.76062 V 21.815907 h 2.76062 v 0.428545 h -9.88642 v -0.428545 h 2.77059 V 1.2657014 h -2.77059 V 0.8371568 Z"
     id="path20"
     inkscape:connector-curvature="0"
     style="fill:#000000;stroke-width:0.99661523" />
  <path
     class="cls-1"
     d="m 161.45167,0.8371568 v 0.4285446 h -2.76063 v 9.6173366 h 0.23919 l 9.19876,-9.6173366 h -2.98984 V 0.8371568 h 5.97969 v 0.4285446 h -2.39188 l -6.70722,7.0261374 10.3947,13.5240682 h 1.86367 v 0.428545 h -10.02595 v -0.428545 h 2.70083 l -7.97293,-10.514291 h -0.23918 v 10.514291 h 2.71079 v 0.428545 h -9.88642 v -0.428545 h 2.76062 V 1.2657014 h -2.76062 V 0.8371568 Z"
     id="path22"
     inkscape:connector-curvature="0"
     style="fill:#000000;stroke-width:0.99661523" />
  <path
     class="cls-1"
     d="M 182.10154,21.815907 191.07107,0 h 0.80726 l 9.43795,21.815907 h 2.58123 v 0.428545 h -10.07578 v -0.428545 h 2.79052 l -3.47818,-8.052651 h -7.2155 l -3.33866,8.052651 h 2.6809 v 0.428545 h -5.68071 v -0.428545 z m 3.98646,-8.471229 h 6.91651 l -3.54795,-8.2021434 z"
     id="path24"
     inkscape:connector-curvature="0"
     style="fill:#000000;stroke-width:0.99661523" />
</svg>
