<?xml version="1.0" encoding="UTF-8"?>
<svg xmlns="http://www.w3.org/2000/svg" xmlns:xlink="http://www.w3.org/1999/xlink" viewBox="0 0 226.77 510.24">
  <defs>
    <style>
      .cls-1 {
        clip-path: url(#clippath);
      }

      .cls-2 {
        fill: none;
      }

      .cls-2, .cls-3, .cls-4, .cls-5, .cls-6, .cls-7, .cls-8, .cls-9, .cls-10, .cls-11, .cls-12, .cls-13, .cls-14, .cls-15, .cls-16, .cls-17, .cls-18, .cls-19, .cls-20, .cls-21, .cls-22, .cls-23 {
        stroke-width: 0px;
      }

      .cls-24 {
        mix-blend-mode: lighten;
        opacity: .1;
      }

      .cls-3, .cls-7, .cls-8, .cls-9, .cls-17, .cls-18, .cls-23 {
        fill: #fff;
      }

      .cls-3, .cls-25 {
        opacity: .7;
      }

      .cls-4 {
        fill: url(#linear-gradient);
      }

      .cls-5 {
        fill: url(#radial-gradient);
      }

      .cls-26 {
        mix-blend-mode: screen;
        opacity: .12;
      }

      .cls-6 {
        fill: url(#GradientFill_10);
      }

      .cls-7 {
        opacity: .8;
      }

      .cls-27 {
        clip-path: url(#clippath-1);
      }

      .cls-8 {
        opacity: .4;
      }

      .cls-9 {
        opacity: .5;
      }

      .cls-10 {
        fill: url(#GradientFill_2);
      }

      .cls-11 {
        fill: url(#GradientFill_10-6);
      }

      .cls-12 {
        fill: url(#GradientFill_10-7);
      }

      .cls-13 {
        fill: url(#GradientFill_10-2);
      }

      .cls-14 {
        fill: url(#GradientFill_10-4);
      }

      .cls-15 {
        fill: url(#GradientFill_10-5);
      }

      .cls-16 {
        fill: url(#GradientFill_10-3);
      }

      .cls-28 {
        isolation: isolate;
      }

      .cls-17 {
        opacity: .6;
      }

      .cls-18 {
        opacity: .3;
      }

      .cls-19 {
        fill: #808285;
      }

      .cls-20 {
        fill: #231f20;
      }

      .cls-21 {
        fill: #cfcfcf;
      }

      .cls-22 {
        fill: #929292;
      }
    </style>
    <clipPath id="clippath">
      <rect class="cls-2" x="0" width="226.77" height="368.5"/>
    </clipPath>
    <linearGradient id="linear-gradient" x1="113.39" y1="322.27" x2="113.39" y2="-37.58" gradientUnits="userSpaceOnUse">
      <stop offset="0" stop-color="#231f20"/>
      <stop offset=".56" stop-color="#231f20" stop-opacity="0"/>
    </linearGradient>
    <clipPath id="clippath-1">
      <polygon id="SVGID" class="cls-2" points=".17 225.72 .17 508.22 226.61 510.23 226.61 154.73 .17 225.72"/>
    </clipPath>
    <radialGradient id="radial-gradient" cx="112.48" cy="35.6" fx="112.48" fy="35.6" r="86.1" gradientTransform="translate(111.46 -40.36) rotate(44.99) scale(1 .8)" gradientUnits="userSpaceOnUse">
      <stop offset="0" stop-color="#676767"/>
      <stop offset="1" stop-color="#231f20"/>
    </radialGradient>
    <linearGradient id="GradientFill_2" data-name="GradientFill 2" x1="30.85" y1="116.87" x2="195.92" y2="116.87" gradientUnits="userSpaceOnUse">
      <stop offset="0" stop-color="#dca83c"/>
      <stop offset=".16" stop-color="#da9f3a"/>
      <stop offset=".3" stop-color="#a46d29"/>
      <stop offset=".4" stop-color="#8e5925"/>
      <stop offset=".54" stop-color="#f3f3ba"/>
      <stop offset=".56" stop-color="#f5ec97"/>
      <stop offset=".69" stop-color="#d5b669"/>
      <stop offset=".75" stop-color="#a77129"/>
      <stop offset=".85" stop-color="#d2ac5c"/>
      <stop offset="1" stop-color="#e0c67b"/>
    </linearGradient>
    <linearGradient id="GradientFill_10" data-name="GradientFill 10" x1="107.56" y1="98.67" x2="107.56" y2="51.29" gradientUnits="userSpaceOnUse">
      <stop offset="0" stop-color="#dca83d"/>
      <stop offset=".16" stop-color="#d99e3a"/>
      <stop offset=".3" stop-color="#a46c29"/>
      <stop offset=".4" stop-color="#8f5824"/>
      <stop offset=".54" stop-color="#f4f4ba"/>
      <stop offset=".56" stop-color="#f6ec99"/>
      <stop offset=".69" stop-color="#d6b767"/>
      <stop offset=".75" stop-color="#a77029"/>
      <stop offset=".85" stop-color="#d1ac5c"/>
      <stop offset="1" stop-color="#e0c77c"/>
    </linearGradient>
    <linearGradient id="GradientFill_10-2" data-name="GradientFill 10" y1="98.67" y2="51.29" xlink:href="#GradientFill_10"/>
    <linearGradient id="GradientFill_10-3" data-name="GradientFill 10" x1="113.39" y1="98.67" x2="113.39" y2="51.29" xlink:href="#GradientFill_10"/>
    <linearGradient id="GradientFill_10-4" data-name="GradientFill 10" x1="117.1" y1="98.67" x2="117.1" y2="51.29" xlink:href="#GradientFill_10"/>
    <linearGradient id="GradientFill_10-5" data-name="GradientFill 10" x1="-4263.4" y1="-2059.9" x2="-4163.91" y2="-1960.4" gradientTransform="translate(-4081.89 -1751.65) rotate(-180)" xlink:href="#GradientFill_10"/>
    <linearGradient id="GradientFill_10-6" data-name="GradientFill 10" x1="45.25" y1="172.99" x2="144.75" y2="272.48" xlink:href="#GradientFill_10"/>
    <linearGradient id="GradientFill_10-7" data-name="GradientFill 10" x1="93.72" y1="247.34" x2="288.59" y2="324.4" xlink:href="#GradientFill_10"/>
  </defs>
  <g class="cls-28">
    <g id="Layer_1" data-name="Layer 1">
      <rect class="cls-20" x="0" y="0" width="226.77" height="510.23"/>
      <g class="cls-1">
        <g>
          <g class="cls-26">
            <polygon class="cls-8" points="113.48 0 170.17 17.69 113.48 35.37 113.48 0"/>
            <polygon class="cls-3" points="226.86 0 170.17 17.69 226.86 35.37 226.86 0"/>
            <polygon class="cls-3" points="113.69 35.37 170.38 17.69 170.38 53.06 113.69 35.37"/>
            <polygon class="cls-8" points="170.17 -17.69 170.17 17.69 226.86 0 170.17 -17.69"/>
            <polygon class="cls-9" points="170.17 53.06 170.17 17.69 226.86 35.37 170.17 53.06"/>
            <polygon class="cls-9" points="113.48 0 170.17 17.69 170.17 -17.69 113.48 0"/>
            <polygon class="cls-18" points="170.17 53.11 226.86 70.8 170.17 88.49 170.17 53.11"/>
            <polygon class="cls-9" points="170.38 88.49 227.07 70.8 227.07 106.17 170.38 88.49"/>
            <polygon class="cls-18" points="170.17 53.11 226.86 70.8 226.86 35.43 170.17 53.11"/>
            <polygon class="cls-9" points=".09 0 56.78 17.69 .09 35.37 .09 0"/>
            <polygon class="cls-9" points="113.48 0 56.78 17.69 113.48 35.37 113.48 0"/>
            <polygon class="cls-9" points=".31 35.37 57 17.69 57 53.06 .31 35.37"/>
            <polygon class="cls-9" points="56.78 -17.69 56.78 17.69 113.48 0 56.78 -17.69"/>
            <polygon class="cls-8" points="56.78 53.06 56.78 17.69 113.48 35.37 56.78 53.06"/>
            <polygon class="cls-17" points=".09 0 56.78 17.69 56.78 -17.69 .09 0"/>
            <polygon class="cls-7" points="56.78 53.11 113.48 70.8 56.78 88.49 56.78 53.11"/>
            <polygon class="cls-9" points="170.17 53.11 113.48 70.8 170.17 88.49 170.17 53.11"/>
            <polygon class="cls-9" points="57 88.49 113.69 70.8 113.69 106.17 57 88.49"/>
            <polygon class="cls-17" points="113.48 35.43 113.48 70.8 170.17 53.11 113.48 35.43"/>
            <polygon class="cls-18" points="113.48 106.17 113.48 70.8 170.17 88.49 113.48 106.17"/>
            <polygon class="cls-3" points="56.78 53.11 113.48 70.8 113.48 35.43 56.78 53.11"/>
            <polygon class="cls-3" points="56.78 53.11 .09 70.8 56.78 88.49 56.78 53.11"/>
            <polygon class="cls-8" points=".09 35.43 .09 70.8 56.78 53.11 .09 35.43"/>
            <polygon class="cls-18" points=".09 106.17 .09 70.8 56.78 88.49 .09 106.17"/>
            <polygon class="cls-9" points="113.48 106.19 170.17 123.87 113.48 141.56 113.48 106.19"/>
            <polygon class="cls-18" points="226.86 106.19 170.17 123.87 226.86 141.56 226.86 106.19"/>
            <polygon class="cls-17" points="113.69 141.56 170.38 123.87 170.38 159.25 113.69 141.56"/>
            <polygon class="cls-9" points="170.17 88.5 170.17 123.87 226.86 106.19 170.17 88.5"/>
            <polygon class="cls-18" points="170.17 159.25 170.17 123.87 226.86 141.56 170.17 159.25"/>
            <polygon class="cls-9" points="113.48 106.19 170.17 123.87 170.17 88.5 113.48 106.19"/>
            <polygon class="cls-7" points="170.17 159.3 226.86 176.99 170.17 194.67 170.17 159.3"/>
            <polygon class="cls-18" points="170.38 194.67 227.07 176.99 227.07 212.36 170.38 194.67"/>
            <polygon class="cls-17" points="170.17 159.3 226.86 176.99 226.86 141.61 170.17 159.3"/>
            <polygon class="cls-9" points=".09 106.19 56.78 123.87 .09 141.56 .09 106.19"/>
            <polygon class="cls-17" points="113.48 106.19 56.78 123.87 113.48 141.56 113.48 106.19"/>
            <polygon class="cls-18" points=".31 141.56 57 123.87 57 159.25 .31 141.56"/>
            <polygon class="cls-18" points="56.78 88.5 56.78 123.87 113.48 106.19 56.78 88.5"/>
            <polygon class="cls-9" points="56.78 159.25 56.78 123.87 113.48 141.56 56.78 159.25"/>
            <polygon class="cls-17" points=".09 106.19 56.78 123.87 56.78 88.5 .09 106.19"/>
            <polygon class="cls-9" points="56.78 159.3 113.48 176.99 56.78 194.67 56.78 159.3"/>
            <polygon class="cls-18" points="170.17 159.3 113.48 176.99 170.17 194.67 170.17 159.3"/>
            <polygon class="cls-17" points="57 194.67 113.69 176.99 113.69 212.36 57 194.67"/>
            <polygon class="cls-8" points="113.48 141.61 113.48 176.99 170.17 159.3 113.48 141.61"/>
            <polygon class="cls-9" points="113.48 212.36 113.48 176.99 170.17 194.67 113.48 212.36"/>
            <polygon class="cls-18" points="56.78 159.3 113.48 176.99 113.48 141.61 56.78 159.3"/>
            <polygon class="cls-17" points="56.78 159.3 .09 176.99 56.78 194.67 56.78 159.3"/>
            <polygon class="cls-9" points=".09 141.61 .09 176.99 56.78 159.3 .09 141.61"/>
            <polygon class="cls-18" points=".09 212.36 .09 176.99 56.78 194.67 .09 212.36"/>
            <polygon class="cls-18" points="113.48 212.37 170.17 230.06 113.48 247.75 113.48 212.37"/>
            <polygon class="cls-17" points="226.86 212.37 170.17 230.06 226.86 247.75 226.86 212.37"/>
            <polygon class="cls-7" points="113.69 247.75 170.38 230.06 170.38 265.43 113.69 247.75"/>
            <polygon class="cls-9" points="170.17 194.69 170.17 230.06 226.86 212.37 170.17 194.69"/>
            <polygon class="cls-8" points="170.17 265.43 170.17 230.06 226.86 247.75 170.17 265.43"/>
            <polygon class="cls-17" points="113.48 212.37 170.17 230.06 170.17 194.69 113.48 212.37"/>
            <polygon class="cls-9" points="170.17 265.49 226.86 283.17 170.17 300.86 170.17 265.49"/>
            <polygon class="cls-7" points="170.38 300.86 227.07 283.17 227.07 318.55 170.38 300.86"/>
            <polygon class="cls-18" points="170.17 265.48 226.86 283.17 226.86 247.8 170.17 265.48"/>
            <polygon class="cls-18" points=".09 212.37 56.78 230.06 .09 247.75 .09 212.37"/>
            <polygon class="cls-7" points="113.48 212.37 56.78 230.06 113.48 247.75 113.48 212.37"/>
            <polygon class="cls-9" points=".73 247.75 57.05 230.13 56.95 265.3 .73 247.75"/>
            <polygon class="cls-18" points="56.78 194.69 56.78 230.06 113.48 212.37 56.78 194.69"/>
            <polygon class="cls-9" points="56.78 265.43 56.78 230.06 113.48 247.75 56.78 265.43"/>
            <polygon class="cls-7" points=".09 212.37 56.78 230.06 56.78 194.69 .09 212.37"/>
            <polygon class="cls-3" points="56.78 265.49 113.48 283.17 56.78 300.86 56.78 265.49"/>
            <polygon class="cls-8" points="170.17 265.49 113.48 283.17 170.17 300.86 170.17 265.49"/>
            <polygon class="cls-8" points="57 300.86 113.69 283.17 113.69 318.55 57 300.86"/>
            <polygon class="cls-18" points="113.48 247.8 113.48 283.17 170.17 265.48 113.48 247.8"/>
            <polygon class="cls-9" points="113.48 318.55 113.48 283.17 170.17 300.86 113.48 318.55"/>
            <polygon class="cls-7" points="56.78 265.48 113.48 283.17 113.48 247.8 56.78 265.48"/>
            <polygon class="cls-3" points="56.78 265.49 .09 283.17 56.78 300.86 56.78 265.49"/>
            <polygon class="cls-17" points=".09 247.8 .09 283.17 56.78 265.48 .09 247.8"/>
            <polygon class="cls-9" points=".09 318.55 .09 283.17 56.78 300.86 .09 318.55"/>
          </g>
          <rect class="cls-4" x="0" y="131.16" width="226.77" height="213.49"/>
        </g>
      </g>
      <g class="cls-25">
        <g class="cls-27">
          <g class="cls-24">
            <g>
              <polygon class="cls-21" points="36.78 525.09 22.37 525.09 22.37 333.03 36.78 323.64 36.78 525.09"/>
              <polygon class="cls-22" points="55.43 525.09 36.78 525.09 36.78 323.64 55.43 328.33 55.43 525.09"/>
            </g>
            <g>
              <polygon class="cls-21" points="131.11 525.95 102.06 525.95 102.06 349.7 131.11 336.67 131.11 525.95"/>
              <polygon class="cls-22" points="156.18 525.95 131.11 525.95 131.11 336.67 156.18 343.18 156.18 525.95"/>
            </g>
            <polygon class="cls-21" points="208.3 352 208.3 525.95 225.15 525.95 225.15 345.9 208.3 352"/>
            <g>
              <polygon class="cls-21" points="89.53 525.95 60.48 525.95 60.48 400.04 89.53 392.45 89.53 525.95"/>
              <polygon class="cls-21" points="60.48 525.95 46.02 525.95 46.02 414.4 60.48 411.37 60.48 525.95"/>
              <polygon class="cls-22" points="114.59 525.95 89.53 525.95 89.53 392.45 114.59 396.24 114.59 525.95"/>
            </g>
            <g>
              <polygon class="cls-21" points="73.28 525.95 62.7 525.95 62.7 420.29 73.28 416.01 73.28 525.95"/>
              <polygon class="cls-22" points="81.59 525.95 73.28 525.95 73.28 416.01 81.59 418.15 81.59 525.95"/>
            </g>
            <g>
              <polygon class="cls-21" points="116.59 525.95 100.06 525.95 100.06 360.17 116.59 352.64 116.59 525.95"/>
              <polygon class="cls-22" points="124.75 525.9 116.59 525.9 116.59 352.64 124.75 354.04 124.75 525.9"/>
            </g>
            <g>
              <polygon class="cls-21" points="176.53 525.9 199.06 525.9 199.06 366.12 176.53 372.2 176.53 525.9"/>
              <polygon class="cls-21" points="176.53 525.9 151.13 525.9 151.13 386.37 176.53 381.06 176.53 525.9"/>
              <polygon class="cls-22" points="221.6 525.9 199.06 525.9 199.06 366.12 221.6 370.3 221.6 525.9"/>
            </g>
            <g>
              <g>
                <polygon class="cls-21" points="155.58 525.95 141.82 525.95 141.82 357.13 155.58 352.81 155.58 525.95"/>
                <polygon class="cls-22" points="166.4 525.95 155.58 525.95 155.58 352.81 166.4 355.92 166.4 525.95"/>
              </g>
              <polygon class="cls-21" points="151.75 343.47 151.13 343.85 151.13 370.92 151.75 370.92 151.75 343.47"/>
            </g>
            <g>
              <polygon class="cls-21" points="171.72 525.95 152.92 525.95 152.92 407.14 171.72 404.01 171.72 525.95"/>
              <polygon class="cls-22" points="186.49 525.95 171.72 525.95 171.72 404.01 186.49 406.36 186.49 525.95"/>
            </g>
            <polygon class="cls-21" points="224.06 525.57 211.57 525.57 211.57 421.88 224.06 419.49 224.06 525.57"/>
            <g>
              <polygon class="cls-21" points="5.5 377.67 5.5 525.95 14.9 525.95 14.9 373.87 5.5 377.67"/>
              <polygon class="cls-22" points="14.9 373.87 14.9 525.95 29.67 525.95 29.67 377.67 14.9 373.87"/>
            </g>
          </g>
        </g>
      </g>
      <g>
        <g>
          <rect class="cls-20" x="50.49" y="53.98" width="125.78" height="125.78" transform="translate(-49.43 114.38) rotate(-44.99)"/>
          <rect class="cls-5" x="52.49" y="55.98" width="121.78" height="121.78" transform="translate(-49.43 114.38) rotate(-44.99)"/>
          <polygon class="cls-10" points="194.63 116.87 193.99 116.22 113.39 196.8 33.43 116.87 113.39 36.94 193.99 117.51 194.63 116.87 193.99 116.22 194.63 116.87 195.28 116.22 113.39 34.36 30.85 116.87 113.39 199.38 195.92 116.87 195.28 116.22 194.63 116.87"/>
        </g>
        <g>
          <path class="cls-23" d="M88.19,166.8v-2.31l5.94-5.61c.47-.43.82-.8,1.04-1.13.23-.33.38-.64.45-.92.07-.29.11-.55.11-.8,0-.6-.21-1.07-.62-1.41-.41-.34-1.03-.51-1.85-.51-.66,0-1.26.13-1.8.4-.54.26-1,.65-1.39,1.17l-2.57-1.67c.57-.88,1.39-1.58,2.44-2.09,1.06-.51,2.27-.77,3.65-.77,1.14,0,2.15.18,3.01.55.87.37,1.54.89,2.01,1.57.48.68.71,1.49.71,2.43,0,.48-.07.98-.21,1.47-.14.5-.39,1.02-.76,1.56-.37.54-.91,1.15-1.63,1.83l-4.93,4.62-.68-1.28h8.71v2.9h-11.66Z"/>
          <path class="cls-23" d="M107.91,167.06c-1.26,0-2.39-.31-3.38-.93-.99-.62-1.77-1.53-2.35-2.71-.58-1.18-.87-2.62-.87-4.32s.29-3.14.87-4.32c.58-1.18,1.36-2.08,2.35-2.7.99-.62,2.12-.94,3.38-.94s2.41.31,3.4.94c.99.62,1.77,1.53,2.35,2.7.58,1.18.87,2.62.87,4.32s-.29,3.14-.87,4.32c-.58,1.18-1.36,2.08-2.35,2.71-.99.62-2.12.93-3.4.93ZM107.91,164.07c.6,0,1.12-.17,1.57-.52.45-.34.8-.88,1.06-1.62s.38-1.68.38-2.84-.13-2.1-.38-2.84-.61-1.27-1.06-1.62c-.45-.34-.97-.52-1.57-.52s-1.09.17-1.54.52c-.46.34-.81.88-1.08,1.62-.26.73-.4,1.68-.4,2.84s.13,2.1.4,2.84c.26.73.62,1.27,1.08,1.62.45.34.97.52,1.54.52Z"/>
          <path class="cls-23" d="M116.02,166.8v-2.31l5.94-5.61c.47-.43.82-.8,1.04-1.13.23-.33.38-.64.45-.92.07-.29.11-.55.11-.8,0-.6-.21-1.07-.62-1.41-.41-.34-1.03-.51-1.85-.51-.66,0-1.26.13-1.8.4-.54.26-1,.65-1.39,1.17l-2.57-1.67c.57-.88,1.39-1.58,2.44-2.09,1.06-.51,2.27-.77,3.65-.77,1.14,0,2.15.18,3.01.55.87.37,1.54.89,2.01,1.57.48.68.71,1.49.71,2.43,0,.48-.07.98-.21,1.47-.14.5-.39,1.02-.76,1.56-.37.54-.91,1.15-1.63,1.83l-4.93,4.62-.68-1.28h8.71v2.9h-11.66Z"/>
          <path class="cls-23" d="M134.11,167.06c-1.07,0-2.13-.14-3.17-.43-1.04-.29-1.94-.7-2.68-1.24l1.39-2.71c.59.43,1.26.77,2.04,1.02.77.26,1.56.38,2.36.38.89,0,1.6-.18,2.11-.54.51-.36.77-.85.77-1.46s-.23-1.05-.68-1.39c-.46-.34-1.19-.51-2.2-.51h-1.61v-2.33l4.27-4.88.4,1.28h-8.07v-2.86h10.78v2.31l-4.27,4.86-1.8-1.03h1.03c1.89,0,3.33.42,4.3,1.28.98.85,1.46,1.94,1.46,3.26,0,.88-.23,1.7-.69,2.46-.46.76-1.16,1.38-2.1,1.84-.94.46-2.15.69-3.63.69Z"/>
        </g>
        <g>
          <g>
            <polygon class="cls-6" points="104.4 62.43 110.72 60.56 110.72 63.84 104.4 65.71 104.4 62.43"/>
            <polygon class="cls-13" points="104.4 68.38 110.72 66.51 110.72 69.78 104.4 71.65 104.4 68.38"/>
          </g>
          <polygon class="cls-16" points="130.68 75.86 130.68 95.36 127.48 95.36 127.48 78.21 117.38 75.04 107.27 78.21 107.27 95.36 104.07 95.36 104.07 75.86 115.83 72.17 115.83 54.67 99.29 59.85 99.29 95.36 96.09 95.36 96.09 57.5 119.03 50.31 119.03 72.21 130.68 75.86"/>
          <rect class="cls-14" x="115.51" y="83.05" width="3.2" height="4.72"/>
        </g>
        <g>
          <path class="cls-23" d="M63.11,113.97v-8.68h3.94c.94,0,1.77.18,2.49.54.72.36,1.28.86,1.69,1.51.4.65.61,1.41.61,2.29s-.2,1.64-.61,2.29c-.41.65-.97,1.15-1.69,1.51-.72.36-1.55.54-2.49.54h-3.94ZM65.13,112.34h1.82c.58,0,1.08-.11,1.51-.33.43-.22.76-.53.99-.94.24-.41.35-.89.35-1.43s-.12-1.03-.35-1.44c-.24-.41-.57-.72-.99-.94-.43-.22-.93-.33-1.51-.33h-1.82v5.41Z"/>
          <path class="cls-23" d="M77.57,114.12c-.69,0-1.32-.11-1.9-.33-.58-.22-1.08-.54-1.51-.94-.43-.41-.76-.88-1-1.43-.24-.55-.35-1.14-.35-1.79s.12-1.25.35-1.79c.24-.54.57-1.01,1-1.42.43-.4.93-.72,1.51-.94.57-.22,1.21-.33,1.89-.33s1.32.11,1.89.33c.57.22,1.08.53,1.51.94.43.41.76.88,1,1.43.24.54.35,1.14.35,1.8s-.12,1.24-.35,1.79c-.24.55-.57,1.03-1,1.43-.43.41-.93.72-1.51.94-.58.22-1.2.33-1.88.33ZM77.56,112.42c.39,0,.75-.07,1.07-.21.33-.14.61-.33.86-.58.25-.25.44-.55.58-.88.14-.34.2-.71.2-1.12s-.07-.79-.2-1.12c-.14-.33-.33-.63-.58-.88-.25-.25-.54-.45-.86-.58-.33-.14-.68-.2-1.07-.2s-.75.07-1.08.2c-.33.14-.62.33-.86.58-.24.25-.43.55-.57.88-.14.33-.2.71-.2,1.12s.07.79.2,1.12c.14.33.33.63.57.88.24.25.53.45.86.58.33.14.69.21,1.08.21Z"/>
          <path class="cls-23" d="M85.49,113.97v-7.04h-2.78v-1.64h7.56v1.64h-2.78v7.04h-2.01Z"/>
          <path class="cls-23" d="M94.87,113.97v-8.68h3.76c.78,0,1.45.13,2.01.38.56.25,1,.61,1.3,1.08.31.47.46,1.03.46,1.67s-.15,1.21-.46,1.68c-.31.47-.74.83-1.3,1.08-.56.26-1.23.38-2.01.38h-2.65l.92-.91v3.3h-2.02ZM96.89,110.9l-.92-.96h2.54c.61,0,1.07-.13,1.39-.4.31-.26.47-.64.47-1.12s-.16-.85-.47-1.11c-.31-.26-.78-.39-1.39-.39h-2.54l.92-.96v4.92Z"/>
          <path class="cls-23" d="M103.82,113.97v-8.68h3.76c.78,0,1.45.13,2.01.38.56.25,1,.61,1.3,1.08.31.47.46,1.03.46,1.67s-.15,1.21-.46,1.68c-.31.47-.74.82-1.3,1.07-.56.24-1.23.37-2.01.37h-2.65l.92-.87v3.3h-2.02ZM105.84,110.9l-.92-.96h2.54c.61,0,1.07-.13,1.39-.4.31-.26.47-.64.47-1.12s-.16-.85-.47-1.11c-.31-.26-.78-.39-1.39-.39h-2.54l.92-.96v4.92ZM109.35,113.97l-2.18-3.15h2.16l2.18,3.15h-2.16Z"/>
          <path class="cls-23" d="M117.15,114.12c-.69,0-1.32-.11-1.9-.33-.58-.22-1.08-.54-1.51-.94-.43-.41-.76-.88-1-1.43-.24-.55-.35-1.14-.35-1.79s.12-1.25.35-1.79c.24-.54.57-1.01,1-1.42.43-.4.93-.72,1.51-.94.57-.22,1.21-.33,1.89-.33s1.32.11,1.89.33c.57.22,1.08.53,1.51.94.43.41.76.88,1,1.43.24.54.35,1.14.35,1.8s-.12,1.24-.35,1.79c-.24.55-.57,1.03-1,1.43-.43.41-.93.72-1.51.94-.58.22-1.2.33-1.88.33ZM117.14,112.42c.39,0,.75-.07,1.07-.21.33-.14.61-.33.86-.58.25-.25.44-.55.58-.88.14-.34.2-.71.2-1.12s-.07-.79-.2-1.12c-.14-.33-.33-.63-.58-.88-.25-.25-.54-.45-.86-.58-.33-.14-.68-.2-1.07-.2s-.75.07-1.08.2c-.33.14-.62.33-.86.58-.24.25-.43.55-.57.88-.14.33-.2.71-.2,1.12s.07.79.2,1.12c.14.33.33.63.57.88.24.25.53.45.86.58.33.14.69.21,1.08.21Z"/>
          <path class="cls-23" d="M123.4,113.97v-8.68h3.76c.78,0,1.45.13,2.01.38.56.25,1,.61,1.3,1.08.31.47.46,1.03.46,1.67s-.15,1.21-.46,1.68c-.31.47-.74.83-1.3,1.08-.56.26-1.23.38-2.01.38h-2.65l.92-.91v3.3h-2.02ZM125.42,110.9l-.92-.96h2.54c.61,0,1.07-.13,1.39-.4.31-.26.47-.64.47-1.12s-.16-.85-.47-1.11c-.31-.26-.78-.39-1.39-.39h-2.54l.92-.96v4.92Z"/>
          <path class="cls-23" d="M134.35,112.36h4.72v1.61h-6.72v-8.68h6.56v1.61h-4.56v5.46ZM134.2,108.78h4.18v1.57h-4.18v-1.57Z"/>
          <path class="cls-23" d="M140.67,113.97v-8.68h3.76c.78,0,1.45.13,2.01.38.56.25,1,.61,1.3,1.08.31.47.46,1.03.46,1.67s-.15,1.21-.46,1.68c-.31.47-.74.82-1.3,1.07-.56.24-1.23.37-2.01.37h-2.65l.92-.87v3.3h-2.02ZM142.69,110.9l-.92-.96h2.54c.61,0,1.07-.13,1.39-.4.31-.26.47-.64.47-1.12s-.16-.85-.47-1.11c-.31-.26-.78-.39-1.39-.39h-2.54l.92-.96v4.92ZM146.2,113.97l-2.18-3.15h2.16l2.18,3.15h-2.16Z"/>
          <path class="cls-23" d="M151.46,113.97v-7.04h-2.78v-1.64h7.56v1.64h-2.78v7.04h-2.01Z"/>
          <path class="cls-23" d="M159.32,113.97v-3.55l.46,1.22-3.83-6.35h2.14l2.93,4.86h-1.23l2.94-4.86h1.96l-3.81,6.35.46-1.22v3.55h-2.02Z"/>
          <path class="cls-23" d="M60.48,128.12c-.69,0-1.36-.09-2-.28-.64-.19-1.16-.43-1.54-.73l.68-1.51c.36.26.8.48,1.31.65.51.17,1.03.25,1.55.25.4,0,.72-.04.96-.12.24-.08.42-.19.54-.33.12-.14.17-.29.17-.48,0-.23-.09-.42-.27-.55-.18-.14-.42-.25-.73-.33-.3-.09-.63-.17-.99-.25-.36-.08-.71-.17-1.07-.29-.36-.11-.69-.26-.99-.45-.3-.19-.54-.43-.72-.73-.18-.3-.27-.68-.27-1.13,0-.5.13-.95.4-1.36.26-.41.67-.74,1.21-.98.54-.24,1.22-.37,2.04-.37.55,0,1.08.07,1.62.2.53.13,1,.32,1.4.57l-.63,1.51c-.39-.22-.79-.39-1.2-.5-.41-.11-.81-.17-1.19-.17s-.71.04-.95.13c-.24.09-.42.21-.53.35-.11.15-.17.31-.17.5,0,.23.09.42.27.56.18.14.42.25.72.33.3.08.63.16.99.24.36.08.72.18,1.08.29.36.12.68.26.98.44.3.18.54.42.73.72.19.3.28.68.28,1.12,0,.49-.13.93-.4,1.34-.27.41-.68.73-1.22.98-.55.25-1.23.37-2.05.37Z"/>
          <path class="cls-23" d="M69.74,128.12c-.69,0-1.32-.11-1.9-.33-.58-.22-1.08-.54-1.51-.94-.43-.41-.76-.88-1-1.43-.24-.55-.35-1.14-.35-1.79s.12-1.25.35-1.79c.24-.54.57-1.01,1-1.42.43-.4.93-.72,1.51-.94.57-.22,1.21-.33,1.89-.33s1.32.11,1.89.33c.57.22,1.08.53,1.51.94.43.41.76.88,1,1.43.24.54.35,1.14.35,1.8s-.12,1.24-.35,1.79c-.24.55-.57,1.03-1,1.43-.43.41-.93.72-1.51.94-.58.22-1.2.33-1.88.33ZM69.73,126.42c.39,0,.75-.07,1.07-.21.33-.14.61-.33.86-.58.25-.25.44-.55.58-.88.14-.34.2-.71.2-1.12s-.07-.79-.2-1.12c-.14-.33-.33-.63-.58-.88-.25-.25-.54-.45-.86-.58-.33-.14-.68-.2-1.07-.2s-.75.07-1.08.2c-.33.14-.62.33-.86.58-.24.25-.43.55-.57.88-.14.33-.2.71-.2,1.12s.07.79.2,1.12c.14.33.33.63.57.88.24.25.53.45.86.58.33.14.69.21,1.08.21Z"/>
          <path class="cls-23" d="M79.85,128.12c-1.23,0-2.2-.34-2.89-1.03-.69-.69-1.04-1.67-1.04-2.95v-4.85h2.02v4.8c0,.82.17,1.41.51,1.78s.81.55,1.41.55,1.09-.18,1.43-.55c.34-.37.51-.96.51-1.78v-4.8h1.97v4.85c0,1.28-.35,2.27-1.04,2.95-.69.69-1.65,1.03-2.88,1.03Z"/>
          <path class="cls-23" d="M87.41,127.97v-7.04h-2.78v-1.64h7.56v1.64h-2.78v7.04h-2.01Z"/>
          <path class="cls-23" d="M95.3,127.97h-2.02v-8.68h2.02v8.68ZM99.38,124.41h-4.24v-1.7h4.24v1.7ZM99.23,119.29h2.01v8.68h-2.01v-8.68Z"/>
          <path class="cls-23" d="M105.29,126.36h4.72v1.61h-6.72v-8.68h6.56v1.61h-4.56v5.46ZM105.14,122.78h4.18v1.57h-4.18v-1.57Z"/>
          <path class="cls-23" d="M110.47,127.97l3.86-8.68h1.98l3.89,8.68h-2.11l-3.19-7.66h.81l-3.19,7.66h-2.06ZM112.42,126.11l.51-1.52h4.49l.52,1.52h-5.52Z"/>
          <path class="cls-23" d="M123.98,128.12c-.69,0-1.36-.09-2-.28-.64-.19-1.16-.43-1.54-.73l.68-1.51c.36.26.8.48,1.31.65.51.17,1.03.25,1.55.25.4,0,.72-.04.96-.12.24-.08.42-.19.54-.33.12-.14.17-.29.17-.48,0-.23-.09-.42-.27-.55-.18-.14-.42-.25-.73-.33-.3-.09-.63-.17-.99-.25-.36-.08-.71-.17-1.07-.29-.36-.11-.69-.26-.99-.45-.3-.19-.54-.43-.72-.73-.18-.3-.27-.68-.27-1.13,0-.5.13-.95.4-1.36.26-.41.67-.74,1.21-.98.54-.24,1.22-.37,2.04-.37.55,0,1.08.07,1.62.2.53.13,1,.32,1.4.57l-.63,1.51c-.39-.22-.79-.39-1.2-.5-.41-.11-.81-.17-1.19-.17s-.71.04-.95.13c-.24.09-.42.21-.53.35-.11.15-.17.31-.17.5,0,.23.09.42.27.56.18.14.42.25.72.33.3.08.63.16.99.24.36.08.72.18,1.08.29.36.12.68.26.98.44.3.18.54.42.73.72.19.3.28.68.28,1.12,0,.49-.13.93-.4,1.34-.27.41-.68.73-1.22.98-.55.25-1.23.37-2.05.37Z"/>
          <path class="cls-23" d="M130.7,127.97v-7.04h-2.78v-1.64h7.56v1.64h-2.78v7.04h-2.01Z"/>
          <path class="cls-23" d="M138.93,127.97l3.86-8.68h1.98l3.89,8.68h-2.11l-3.19-7.66h.81l-3.19,7.66h-2.06ZM140.88,126.11l.51-1.52h4.49l.52,1.52h-5.52Z"/>
          <path class="cls-23" d="M152.43,128.12c-.69,0-1.36-.09-2-.28-.64-.19-1.16-.43-1.54-.73l.68-1.51c.36.26.8.48,1.31.65.51.17,1.03.25,1.55.25.4,0,.72-.04.96-.12.24-.08.42-.19.54-.33.12-.14.17-.29.17-.48,0-.23-.09-.42-.27-.55-.18-.14-.42-.25-.73-.33-.3-.09-.63-.17-.99-.25-.36-.08-.71-.17-1.07-.29-.36-.11-.69-.26-.99-.45-.3-.19-.54-.43-.72-.73-.18-.3-.27-.68-.27-1.13,0-.5.13-.95.4-1.36.26-.41.67-.74,1.21-.98.54-.24,1.22-.37,2.04-.37.55,0,1.08.07,1.62.2.53.13,1,.32,1.4.57l-.63,1.51c-.39-.22-.79-.39-1.2-.5-.41-.11-.81-.17-1.19-.17s-.71.04-.95.13c-.24.09-.42.21-.53.35-.11.15-.17.31-.17.5,0,.23.09.42.27.56.18.14.42.25.72.33.3.08.63.16.99.24.36.08.72.18,1.08.29.36.12.68.26.98.44.3.18.54.42.73.72.19.3.28.68.28,1.12,0,.49-.13.93-.4,1.34-.27.41-.68.73-1.22.98-.55.25-1.23.37-2.05.37Z"/>
          <path class="cls-23" d="M157.48,127.97v-8.68h2.02v8.68h-2.02Z"/>
          <path class="cls-23" d="M160.41,127.97l3.86-8.68h1.98l3.89,8.68h-2.11l-3.19-7.66h.81l-3.19,7.66h-2.06ZM162.35,126.11l.51-1.52h4.49l.52,1.52h-5.52Z"/>
          <path class="cls-23" d="M83.32,141.97l3.86-8.68h1.98l3.89,8.68h-2.11l-3.19-7.66h.81l-3.19,7.66h-2.06ZM85.26,140.11l.51-1.52h4.49l.52,1.52h-5.52Z"/>
          <path class="cls-23" d="M95.58,141.97l-2.85-8.68h2.08l2.47,7.69h-1.04l2.58-7.69h1.86l2.48,7.69h-1l2.53-7.69h1.92l-2.85,8.68h-2.13l-2.21-6.75h.57l-2.26,6.75h-2.14Z"/>
          <path class="cls-23" d="M106.29,141.97l3.86-8.68h1.98l3.89,8.68h-2.11l-3.19-7.66h.81l-3.19,7.66h-2.06ZM108.24,140.11l.51-1.52h4.49l.52,1.52h-5.52Z"/>
          <path class="cls-23" d="M116.93,141.97v-8.68h3.76c.78,0,1.45.13,2.01.38.56.25,1,.61,1.3,1.08.31.47.46,1.03.46,1.67s-.15,1.21-.46,1.68c-.31.47-.74.82-1.3,1.07-.56.24-1.23.37-2.01.37h-2.65l.92-.87v3.3h-2.02ZM118.95,138.9l-.92-.96h2.54c.61,0,1.07-.13,1.39-.4.31-.26.47-.64.47-1.12s-.16-.85-.47-1.11c-.31-.26-.78-.39-1.39-.39h-2.54l.92-.96v4.92ZM122.46,141.97l-2.18-3.15h2.16l2.18,3.15h-2.16Z"/>
          <path class="cls-23" d="M126.05,141.97v-8.68h3.94c.94,0,1.77.18,2.49.54.72.36,1.28.86,1.69,1.51.4.65.61,1.41.61,2.29s-.2,1.64-.61,2.29c-.41.65-.97,1.15-1.69,1.51-.72.36-1.55.54-2.49.54h-3.94ZM128.07,140.34h1.82c.58,0,1.08-.11,1.51-.33.43-.22.76-.53.99-.94.24-.41.35-.89.35-1.43s-.12-1.03-.35-1.44c-.24-.41-.57-.72-.99-.94-.43-.22-.93-.33-1.51-.33h-1.82v5.41Z"/>
          <path class="cls-23" d="M139.15,142.12c-.69,0-1.36-.09-2-.28-.64-.19-1.16-.43-1.54-.73l.68-1.51c.36.26.8.48,1.31.65.51.17,1.03.25,1.55.25.4,0,.72-.04.96-.12.24-.08.42-.19.54-.33.12-.14.17-.29.17-.48,0-.23-.09-.42-.27-.55-.18-.14-.42-.25-.73-.33-.3-.09-.63-.17-.99-.25-.36-.08-.71-.17-1.07-.29-.36-.11-.69-.26-.99-.45-.3-.19-.54-.43-.72-.73-.18-.3-.27-.68-.27-1.13,0-.5.13-.95.4-1.36.26-.41.67-.74,1.21-.98.54-.24,1.22-.37,2.04-.37.55,0,1.08.07,1.62.2.53.13,1,.32,1.4.57l-.63,1.51c-.39-.22-.79-.39-1.2-.5-.41-.11-.81-.17-1.19-.17s-.71.04-.95.13c-.24.09-.42.21-.53.35-.11.15-.17.31-.17.5,0,.23.09.42.27.56.18.14.42.25.72.33.3.08.63.16.99.24.36.08.72.18,1.08.29.36.12.68.26.98.44.3.18.54.42.73.72.19.3.28.68.28,1.12,0,.49-.13.93-.4,1.34-.27.41-.68.73-1.22.98-.55.25-1.23.37-2.05.37Z"/>
        </g>
      </g>
      <g>
        <g>
          <rect class="cls-15" x="59.53" y="225.97" width="107.72" height="28.3"/>
          <rect class="cls-11" x="59.53" y="226.97" width="107.72" height="28.3"/>
        </g>
        <g>
          <path class="cls-20" d="M93.98,235.36l-4.01,12.37h-3.75l-2.37-7.53-2.48,7.53h-3.75l-4.01-12.37h3.61l2.49,7.9,2.62-7.9h3.22l2.49,7.97,2.6-7.97h3.34Z"/>
          <path class="cls-20" d="M95.24,235.36h3.5v12.37h-3.5v-12.37Z"/>
          <path class="cls-20" d="M113,235.36v12.37h-2.88l-5.46-6.59v6.59h-3.43v-12.37h2.88l5.46,6.59v-6.59h3.43Z"/>
          <path class="cls-20" d="M127.24,235.36v12.37h-2.88l-5.46-6.59v6.59h-3.43v-12.37h2.88l5.46,6.59v-6.59h3.43Z"/>
          <path class="cls-20" d="M139.65,245.02v2.7h-9.93v-12.37h9.7v2.7h-6.24v2.08h5.5v2.62h-5.5v2.26h6.47Z"/>
          <path class="cls-20" d="M147,244.44h-1.91v3.29h-3.5v-12.37h5.65c1.12,0,2.09.19,2.92.56.83.37,1.46.9,1.91,1.59.45.69.67,1.5.67,2.43s-.21,1.68-.63,2.34c-.42.67-1.02,1.19-1.79,1.56l2.67,3.89h-3.75l-2.24-3.29ZM148.66,238.59c-.37-.32-.91-.48-1.63-.48h-1.94v3.62h1.94c.72,0,1.26-.16,1.63-.47.36-.31.55-.76.55-1.33s-.18-1.03-.55-1.34Z"/>
        </g>
      </g>
      <g>
        <path class="cls-23" d="M110.19,433.12c0-1.86.52-3.24,1.55-4.14.87-.74,1.92-1.12,3.16-1.12,1.38,0,2.51.45,3.39,1.36.88.91,1.32,2.16,1.32,3.75,0,1.29-.19,2.31-.58,3.05-.39.74-.95,1.32-1.7,1.73-.74.41-1.55.62-2.43.62-1.41,0-2.55-.45-3.42-1.35-.87-.9-1.3-2.2-1.3-3.9M111.94,433.12c0,1.29.28,2.25.84,2.89.56.64,1.27.96,2.12.96s1.55-.32,2.11-.97c.56-.64.84-1.62.84-2.94,0-1.24-.28-2.19-.85-2.83-.57-.64-1.27-.96-2.11-.96s-1.56.32-2.12.96c-.56.64-.84,1.6-.84,2.89"/>
        <path class="cls-23" d="M139.08,434.91l1.76.22c-.28,1.03-.79,1.83-1.54,2.4-.75.57-1.71.85-2.88.85-1.47,0-2.64-.45-3.5-1.36-.86-.91-1.29-2.18-1.29-3.81s.44-3,1.31-3.94c.87-.93,2-1.4,3.39-1.4s2.44.46,3.3,1.37c.85.92,1.28,2.2,1.28,3.86,0,.1,0,.25,0,.45h-7.5c.06,1.1.38,1.95.94,2.54.56.59,1.26.88,2.1.88.63,0,1.16-.16,1.6-.49.44-.33.79-.85,1.05-1.57M133.48,432.16h5.62c-.08-.85-.29-1.48-.64-1.9-.54-.66-1.25-.99-2.11-.99-.78,0-1.44.26-1.98.79-.53.52-.83,1.22-.89,2.1"/>
        <path class="cls-23" d="M153.39,442.02l-.19-1.6c.37.1.7.15.98.15.38,0,.68-.06.91-.19.23-.13.41-.3.56-.53.11-.17.28-.59.52-1.27.03-.09.08-.23.15-.42l-3.82-10.08h1.84l2.09,5.82c.27.74.51,1.51.73,2.33.2-.78.43-1.55.7-2.29l2.15-5.86h1.71l-3.83,10.23c-.41,1.1-.73,1.87-.96,2.28-.3.56-.65.97-1.04,1.24-.39.26-.86.39-1.4.39-.33,0-.69-.07-1.1-.21"/>
        <path class="cls-23" d="M92.96,428.09v2.12h-1.82v4.05c0,.82.02,1.3.05,1.43.03.14.11.25.24.34.12.09.27.13.45.13.25,0,.6-.08,1.07-.26l.23,2.06c-.62.27-1.32.4-2.1.4-.48,0-.91-.08-1.3-.24-.39-.16-.67-.37-.85-.63-.18-.26-.3-.6-.37-1.04-.06-.31-.09-.93-.09-1.87v-10.06h2.67v3.55h1.82Z"/>
        <path class="cls-23" d="M72.77,424.54v3.91c-.74-.39-1.58-.58-2.54-.58s-1.88.22-2.68.65c-.8.44-1.42,1.07-1.85,1.89-.44.83-.65,1.68-.65,2.57,0,1.16.22,2.14.65,2.94.44.81,1.07,1.42,1.91,1.83.84.42,1.72.62,2.64.62,1.49,0,2.73-.5,3.71-1.5.96-.97,1.44-2.2,1.47-3.66h0v-8.67h-2.66ZM71.99,435.41c-.47.53-1.05.8-1.75.8s-1.28-.27-1.75-.8c-.47-.53-.71-1.29-.71-2.29s.24-1.76.71-2.29c.47-.53,1.06-.8,1.75-.8s1.28.26,1.75.8c.47.53.71,1.29.71,2.27s-.24,1.78-.71,2.31"/>
        <path class="cls-23" d="M105.15,432.78v.02c0,.1,0,.2,0,.3v-.32s0,5.37,0,5.37h1.76v-5.04c0-1.5.23-2.28.83-2.87.89-.87,2.12-.85,2.12-.85v-1.52c-4.72,0-4.72,4.35-4.72,4.92"/>
        <path class="cls-23" d="M142.19,432.78v.02c0,.1,0,.2,0,.3v-.32s0,5.37,0,5.37h1.76v-5.04c0-1.5.23-2.28.83-2.87.89-.87,2.12-.85,2.12-.85v-1.52c-4.72,0-4.72,4.35-4.72,4.92"/>
        <path class="cls-23" d="M150.86,436.69c-.25,0-.45-.04-.58-.12-.14-.08-.23-.19-.29-.33-.06-.14-.09-.45-.09-.94v-5.91h1.71v-1.52h-1.71v-3.32h-1.7v10.66c0,1.02.07,1.69.21,2.01.14.32.38.58.72.77.34.2.82.29,1.44.29.38,0,.81-.05,1.29-.15l-.25-1.51c-.31.04-.56.07-.75.07"/>
        <path class="cls-23" d="M102.58,429.23c-.88-.91-2.01-1.36-3.39-1.36-1.24,0-2.3.37-3.16,1.12-1.04.9-1.55,2.28-1.55,4.14v8.88h1.76v-4.57c.8.63,1.78.94,2.95.94.88,0,1.69-.21,2.43-.62.74-.41,1.31-.99,1.7-1.73.39-.74.58-1.76.58-3.05,0-1.6-.44-2.85-1.32-3.75M101.3,436.01c-.56.64-1.27.97-2.11.97s-1.56-.32-2.12-.96c-.53-.61-.8-1.51-.83-2.7v-.19h-.01c0-1.29.28-2.25.84-2.89.56-.64,1.27-.96,2.12-.96s1.54.32,2.11.96c.57.64.85,1.58.85,2.83,0,1.32-.28,2.3-.84,2.94"/>
        <path class="cls-23" d="M129.01,429.23c-.88-.91-2.01-1.36-3.39-1.36-1.24,0-2.3.37-3.16,1.12-1.04.9-1.55,2.28-1.55,4.14v8.88h1.76v-4.57c.8.63,1.78.94,2.95.94.88,0,1.69-.21,2.43-.62.74-.41,1.31-.99,1.7-1.73.39-.74.58-1.76.58-3.05,0-1.6-.44-2.85-1.32-3.75M127.73,436.01c-.56.64-1.27.97-2.11.97s-1.56-.32-2.12-.96c-.53-.61-.8-1.51-.83-2.7v-.19h-.01c0-1.29.28-2.25.84-2.89.56-.64,1.27-.96,2.12-.96s1.54.32,2.11.96c.57.64.85,1.58.85,2.83,0,1.32-.28,2.3-.84,2.94"/>
        <g>
          <path class="cls-23" d="M78.76,430.53l4.74-1.48v4.52l2.41.75v2.31c.83-.93,1.34-2.16,1.34-3.51,0-2.9-2.35-5.26-5.26-5.26s-5.26,2.35-5.26,5.26c0,1.69.8,3.19,2.03,4.15v-6.74Z"/>
          <path class="cls-23" d="M82.84,429.95l-3.42,1.07v6.69c.31.17.64.32.99.43v-3.81l2.43-.76v-3.62ZM81.78,433.07l-1.3.39v-.68l1.3-.39v.68ZM81.78,431.84l-1.3.39v-.68l1.3-.39v.68Z"/>
          <path class="cls-23" d="M85.24,434.81l-2.09-.65-2.09.65v3.49c.3.05.61.08.92.08,1.23,0,2.36-.42,3.25-1.13v-2.44ZM82.77,436.78v-.97h.66v.97h-.66Z"/>
        </g>
        <g>
          <path class="cls-19" d="M87.09,415.58c-.47,0-.91-.08-1.32-.24-.41-.16-.76-.38-1.05-.67-.3-.29-.53-.63-.69-1.02-.17-.39-.25-.81-.25-1.27s.08-.89.25-1.27c.17-.39.4-.73.69-1.02.3-.29.65-.52,1.05-.67.4-.16.84-.24,1.32-.24s.91.08,1.31.24c.4.16.75.38,1.05.67.3.29.53.63.69,1.02.16.39.25.82.25,1.28s-.08.89-.25,1.28c-.17.39-.4.73-.69,1.02-.3.29-.65.51-1.05.67-.4.16-.84.24-1.31.24ZM87.09,414.99c.38,0,.73-.06,1.05-.19.32-.13.6-.31.84-.55.24-.24.42-.51.55-.83.13-.32.2-.66.2-1.04s-.07-.72-.2-1.04-.32-.59-.55-.83c-.24-.24-.52-.42-.84-.55-.32-.13-.67-.19-1.05-.19s-.73.06-1.05.19c-.32.13-.61.31-.85.55-.24.24-.43.51-.56.83s-.2.66-.2,1.04.07.72.2,1.04c.13.32.32.6.56.83.24.24.52.42.85.55.32.13.68.19,1.05.19Z"/>
          <path class="cls-19" d="M91.75,415.53v-4.72h.61v1.29l-.06-.22c.13-.36.35-.63.67-.82.31-.19.7-.28,1.16-.28v.62s-.05,0-.07,0c-.02,0-.05,0-.07,0-.5,0-.89.15-1.17.45-.28.3-.42.73-.42,1.29v2.41h-.64Z"/>
          <path class="cls-19" d="M97.14,415.35c-.45,0-.86-.1-1.21-.29-.36-.19-.64-.47-.85-.81-.21-.35-.31-.75-.31-1.2s.1-.85.31-1.19c.21-.34.49-.61.85-.81.36-.19.76-.29,1.21-.29.42,0,.8.09,1.13.26.34.17.6.43.8.77.2.34.3.76.3,1.25s-.1.91-.3,1.25c-.2.34-.46.6-.8.78-.34.18-.71.27-1.13.27ZM97.26,417.32c-.43,0-.85-.06-1.24-.19-.4-.13-.72-.31-.96-.54l.32-.49c.22.2.5.36.82.47.33.12.67.17,1.04.17.6,0,1.04-.14,1.32-.42.28-.28.42-.71.42-1.3v-1.18l.09-.81-.06-.81v-1.43h.61v4.15c0,.82-.2,1.42-.6,1.8-.4.38-.99.57-1.77.57ZM97.2,414.78c.35,0,.66-.07.93-.22.27-.15.48-.35.64-.61.16-.26.23-.56.23-.91s-.08-.64-.23-.9c-.16-.26-.37-.46-.64-.61-.27-.15-.58-.22-.93-.22s-.65.07-.92.22c-.27.15-.49.35-.64.61-.15.26-.23.56-.23.9s.08.64.23.91c.15.26.37.46.64.61.27.15.58.22.92.22Z"/>
          <path class="cls-19" d="M102.74,415.58c-.35,0-.66-.06-.92-.18-.26-.12-.46-.28-.6-.49-.14-.21-.21-.45-.21-.72,0-.25.06-.47.18-.67.12-.2.31-.36.58-.49.27-.12.63-.18,1.08-.18h1.63v.48h-1.61c-.46,0-.77.08-.95.24-.18.16-.27.36-.27.6,0,.27.1.49.32.65.21.16.5.24.88.24s.67-.08.93-.25c.26-.17.45-.4.57-.72l.14.44c-.12.31-.33.56-.62.75-.3.19-.67.28-1.12.28ZM104.37,415.53v-1.04l-.03-.17v-1.75c0-.4-.11-.71-.34-.93-.22-.22-.56-.32-1-.32-.31,0-.6.05-.87.15-.28.1-.51.24-.7.4l-.29-.48c.24-.2.53-.36.86-.47.34-.11.69-.17,1.06-.17.61,0,1.08.15,1.42.45.33.3.5.76.5,1.38v2.93h-.61Z"/>
          <path class="cls-19" d="M109.13,410.76c.38,0,.72.07,1.01.22.29.15.52.37.68.67.17.3.25.68.25,1.13v2.75h-.64v-2.68c0-.5-.12-.88-.37-1.13-.25-.25-.6-.38-1.05-.38-.34,0-.63.07-.88.2-.25.13-.44.33-.58.58-.13.25-.2.56-.2.92v2.48h-.64v-4.72h.61v1.3l-.1-.24c.15-.34.39-.61.72-.81s.72-.29,1.18-.29Z"/>
          <path class="cls-19" d="M113.12,409.76c-.13,0-.24-.05-.33-.14s-.13-.2-.13-.32.04-.23.13-.32c.09-.09.2-.13.33-.13s.24.04.33.13.13.19.13.31c0,.13-.04.24-.13.33-.09.09-.2.14-.34.14ZM112.8,415.53v-4.72h.64v4.72h-.64Z"/>
          <path class="cls-19" d="M116.49,415.58c-.39,0-.76-.06-1.11-.17-.35-.11-.62-.25-.82-.42l.29-.5c.19.14.44.27.74.37.3.11.62.16.95.16.45,0,.77-.07.97-.21.2-.14.3-.33.3-.56,0-.17-.06-.31-.17-.41-.11-.1-.26-.17-.44-.23-.18-.05-.38-.09-.6-.13-.22-.04-.44-.08-.66-.13-.22-.05-.42-.12-.6-.21-.18-.09-.33-.22-.44-.38-.11-.16-.17-.38-.17-.65s.07-.49.22-.69c.14-.2.36-.36.63-.48.28-.12.62-.17,1.02-.17.31,0,.61.04.92.12.31.08.56.19.76.32l-.28.51c-.21-.14-.43-.25-.67-.31-.24-.06-.48-.09-.72-.09-.43,0-.74.07-.94.22-.2.15-.3.34-.3.56,0,.18.06.32.17.42.11.1.26.18.44.24.18.06.38.1.6.14.22.04.44.08.66.13.22.05.42.12.6.21.18.09.33.21.44.37.11.16.17.37.17.63,0,.28-.08.51-.23.71-.15.2-.38.36-.67.47-.29.11-.64.17-1.06.17Z"/>
          <path class="cls-19" d="M121.62,415.58c-.49,0-.92-.1-1.3-.31-.37-.21-.66-.49-.87-.85-.21-.36-.31-.78-.31-1.25s.1-.88.3-1.24c.2-.36.48-.64.83-.85.35-.21.75-.31,1.18-.31s.84.1,1.18.3c.35.2.62.48.81.85.2.36.3.78.3,1.25,0,.03,0,.06,0,.09,0,.03,0,.07,0,.1h-4.11v-.48h3.77l-.25.19c0-.34-.07-.65-.22-.91-.15-.27-.35-.48-.6-.63-.25-.15-.54-.22-.87-.22s-.61.08-.87.22c-.26.15-.46.36-.6.63-.14.27-.22.58-.22.93v.1c0,.36.08.68.24.95.16.27.38.49.67.64.29.15.61.23.98.23.29,0,.56-.05.81-.15.25-.1.46-.26.64-.47l.36.41c-.21.25-.47.44-.79.58-.32.13-.66.2-1.04.2Z"/>
          <path class="cls-19" d="M126.93,415.58c-.45,0-.85-.1-1.21-.31-.36-.2-.64-.49-.84-.85-.2-.36-.31-.78-.31-1.26s.1-.9.31-1.26c.2-.36.48-.64.84-.84.36-.2.76-.3,1.21-.3.41,0,.78.09,1.11.28.33.19.59.46.78.81.2.36.29.79.29,1.31s-.1.95-.29,1.31c-.19.36-.45.63-.78.82-.33.19-.7.28-1.12.28ZM126.97,415.01c.34,0,.64-.08.9-.23.27-.15.48-.37.63-.65.15-.28.23-.6.23-.97s-.08-.7-.23-.97c-.15-.28-.36-.49-.63-.64-.27-.15-.57-.23-.9-.23s-.63.08-.89.23c-.26.15-.47.37-.63.64-.16.28-.23.6-.23.97s.08.69.23.97c.16.28.37.5.63.65.26.15.56.23.89.23ZM128.76,415.53v-1.42l.06-.95-.09-.95v-3.35h.64v6.68h-.61Z"/>
          <path class="cls-19" d="M133.51,415.53v-6.68h.64v3.35l-.09.95.06.95v1.42h-.61ZM135.95,415.58c-.41,0-.79-.09-1.12-.28-.33-.19-.59-.46-.78-.82-.19-.36-.29-.8-.29-1.31s.1-.95.29-1.31c.2-.36.46-.63.79-.81.33-.19.7-.28,1.11-.28.45,0,.85.1,1.21.3.36.2.64.48.84.84.2.36.31.78.31,1.26s-.1.89-.31,1.26c-.2.36-.48.65-.84.85-.36.2-.76.31-1.21.31ZM135.9,415.01c.34,0,.64-.08.9-.23.26-.15.47-.37.63-.65.16-.28.23-.6.23-.97s-.08-.7-.23-.97c-.16-.28-.37-.49-.63-.64-.26-.15-.56-.23-.9-.23s-.64.08-.9.23c-.27.15-.48.37-.63.64-.15.28-.23.6-.23.97s.08.69.23.97c.15.28.36.5.63.65.27.15.57.23.9.23Z"/>
          <path class="cls-19" d="M139.51,417.32c-.22,0-.43-.04-.63-.11-.2-.07-.37-.18-.52-.32l.3-.48c.12.11.25.2.39.27.14.06.3.09.47.09.21,0,.39-.06.54-.18s.3-.32.44-.62l.31-.69.07-.1,1.94-4.38h.63l-2.37,5.29c-.13.31-.28.55-.44.73s-.33.31-.52.38c-.19.08-.39.11-.62.11ZM140.77,415.67l-2.18-4.86h.67l1.93,4.34-.41.52Z"/>
        </g>
      </g>
      <polygon class="cls-2" points="5.24 503.08 113.88 452.65 221.53 503.01 221.53 5.24 5.24 5.24 5.24 503.08"/>
      <polygon class="cls-2" points="5.24 503.08 113.88 452.65 221.53 503.01 221.53 5.24 5.24 5.24 5.24 503.08"/>
      <path class="cls-12" d="M226.77,505.46V0H0v510.24h226.77v-4.78h0ZM221.53,503.01l-107.65-50.36L5.24,503.08V5.24h216.28v497.76Z"/>
      <g>
        <path class="cls-23" d="M16.38,321.53v-8.4h3.95c1,0,1.76.2,2.29.59.53.4.79.93.79,1.59,0,.45-.1.83-.31,1.15-.21.32-.49.56-.83.73-.35.17-.73.26-1.13.26l.22-.43c.47,0,.9.09,1.27.26.38.17.67.42.89.75.22.33.32.74.32,1.22,0,.72-.27,1.28-.82,1.68-.55.4-1.36.6-2.44.6h-4.19ZM17.94,320.31h2.53c.58,0,1.02-.1,1.33-.29.31-.19.47-.5.47-.92s-.16-.72-.47-.92c-.31-.2-.76-.3-1.33-.3h-2.65v-1.21h2.33c.54,0,.95-.1,1.25-.29.3-.19.44-.48.44-.86s-.15-.68-.44-.88c-.3-.19-.71-.29-1.25-.29h-2.21v5.95Z"/>
        <path class="cls-23" d="M27.08,320.21h4.74v1.32h-6.3v-8.4h6.13v1.32h-4.57v5.76ZM26.96,316.62h4.18v1.28h-4.18v-1.28Z"/>
        <path class="cls-23" d="M36.16,321.65c-.66,0-1.28-.09-1.88-.28-.6-.19-1.07-.43-1.43-.73l.54-1.21c.34.26.75.48,1.25.66.5.18,1,.26,1.52.26.44,0,.8-.05,1.07-.14.27-.1.47-.23.6-.39.13-.16.19-.35.19-.56,0-.26-.09-.46-.28-.62-.18-.16-.42-.28-.71-.37s-.62-.18-.97-.25c-.36-.08-.71-.17-1.07-.28-.36-.11-.68-.25-.98-.43s-.53-.4-.71-.69-.27-.66-.27-1.1.12-.87.37-1.25c.24-.38.62-.68,1.12-.91.5-.23,1.13-.34,1.9-.34.5,0,1,.06,1.5.19.5.13.93.31,1.3.55l-.49,1.21c-.38-.22-.76-.39-1.16-.5-.4-.11-.78-.16-1.15-.16-.42,0-.77.05-1.04.16-.27.1-.47.24-.59.41-.12.17-.19.36-.19.57,0,.26.09.46.27.62.18.16.42.28.71.37s.62.17.98.25c.36.08.72.17,1.07.28.35.11.68.25.97.42.3.17.53.4.71.68.18.28.27.65.27,1.09s-.12.86-.37,1.24c-.24.38-.62.68-1.12.91-.5.23-1.14.34-1.91.34Z"/>
        <path class="cls-23" d="M42.69,321.53v-7.08h-2.78v-1.32h7.13v1.32h-2.78v7.08h-1.56Z"/>
        <path class="cls-23" d="M51.52,321.53v-8.4h1.56v8.4h-1.56Z"/>
        <path class="cls-23" d="M55.35,321.53v-8.4h1.28l5.27,6.48h-.64v-6.48h1.54v8.4h-1.28l-5.26-6.48h.64v6.48h-1.55Z"/>
        <path class="cls-23" d="M65.07,321.53v-8.4h1.28l5.27,6.48h-.64v-6.48h1.54v8.4h-1.28l-5.26-6.48h.64v6.48h-1.55Z"/>
        <path class="cls-23" d="M78.72,321.65c-.65,0-1.25-.11-1.81-.32-.56-.22-1.04-.52-1.45-.91-.41-.39-.72-.85-.95-1.37-.22-.52-.34-1.09-.34-1.71s.11-1.2.34-1.72c.22-.52.54-.98.95-1.37.41-.39.89-.69,1.44-.91s1.16-.32,1.81-.32,1.25.11,1.8.32c.55.21,1.03.51,1.43.9s.72.85.94,1.37c.22.53.34,1.1.34,1.73s-.11,1.2-.34,1.72c-.22.52-.54.98-.94,1.37-.4.39-.88.69-1.43.91-.55.21-1.15.32-1.8.32ZM78.72,320.28c.42,0,.81-.07,1.17-.22.36-.14.67-.35.93-.61.26-.26.47-.58.62-.94.15-.36.22-.76.22-1.19s-.07-.83-.22-1.19c-.14-.36-.35-.67-.62-.94-.27-.26-.58-.47-.94-.61-.36-.14-.75-.22-1.17-.22s-.82.07-1.18.22c-.36.14-.68.35-.94.62-.26.27-.47.58-.62.94-.15.36-.23.75-.23,1.18s.08.82.23,1.18c.15.36.36.67.62.94.26.27.58.47.94.62.36.14.76.22,1.18.22Z"/>
        <path class="cls-23" d="M87.11,321.53l-3.67-8.4h1.69l3.28,7.6h-.98l3.34-7.6h1.55l-3.66,8.4h-1.54Z"/>
        <path class="cls-23" d="M91.74,321.53l3.78-8.4h1.54l3.79,8.4h-1.64l-3.24-7.57h.62l-3.25,7.57h-1.6ZM93.48,319.59l.43-1.22h4.52l.42,1.22h-5.38Z"/>
        <path class="cls-23" d="M103.2,321.53v-7.08h-2.78v-1.32h7.13v1.32h-2.78v7.08h-1.56Z"/>
        <path class="cls-23" d="M108.72,321.53v-8.4h1.56v8.4h-1.56Z"/>
        <path class="cls-23" d="M114.98,321.53l-3.67-8.4h1.69l3.28,7.6h-.98l3.34-7.6h1.55l-3.66,8.4h-1.54Z"/>
        <path class="cls-23" d="M122.62,320.21h4.74v1.32h-6.3v-8.4h6.13v1.32h-4.57v5.76ZM122.5,316.62h4.18v1.28h-4.18v-1.28Z"/>
        <path class="cls-23" d="M132.41,321.53v-8.4h3.68c.9,0,1.69.17,2.38.52.69.35,1.23.84,1.61,1.47.38.63.58,1.37.58,2.21s-.19,1.58-.58,2.21c-.38.63-.92,1.12-1.61,1.47-.69.35-1.49.52-2.38.52h-3.68ZM133.97,320.21h2.03c.63,0,1.18-.12,1.64-.36.46-.24.82-.58,1.08-1.01.26-.43.39-.94.39-1.51s-.13-1.1-.39-1.52c-.26-.42-.62-.76-1.08-1-.46-.24-1.01-.36-1.64-.36h-2.03v5.76Z"/>
        <path class="cls-23" d="M143.88,320.21h4.74v1.32h-6.3v-8.4h6.13v1.32h-4.57v5.76ZM143.76,316.62h4.18v1.28h-4.18v-1.28Z"/>
        <path class="cls-23" d="M152.73,321.53l-3.67-8.4h1.69l3.28,7.6h-.98l3.34-7.6h1.55l-3.66,8.4h-1.54Z"/>
        <path class="cls-23" d="M160.37,320.21h4.74v1.32h-6.3v-8.4h6.13v1.32h-4.57v5.76ZM160.25,316.62h4.18v1.28h-4.18v-1.28Z"/>
        <path class="cls-23" d="M166.85,321.53v-8.4h1.56v7.08h4.39v1.32h-5.95Z"/>
        <path class="cls-23" d="M177.82,321.65c-.65,0-1.25-.11-1.81-.32-.56-.22-1.04-.52-1.45-.91-.41-.39-.72-.85-.95-1.37-.22-.52-.34-1.09-.34-1.71s.11-1.2.34-1.72c.22-.52.54-.98.95-1.37.41-.39.89-.69,1.44-.91s1.16-.32,1.81-.32,1.25.11,1.8.32c.55.21,1.03.51,1.43.9s.72.85.94,1.37c.22.53.34,1.1.34,1.73s-.11,1.2-.34,1.72c-.22.52-.54.98-.94,1.37-.4.39-.88.69-1.43.91-.55.21-1.15.32-1.8.32ZM177.82,320.28c.42,0,.81-.07,1.17-.22.36-.14.67-.35.93-.61.26-.26.47-.58.62-.94.15-.36.22-.76.22-1.19s-.07-.83-.22-1.19c-.14-.36-.35-.67-.62-.94-.27-.26-.58-.47-.94-.61-.36-.14-.75-.22-1.17-.22s-.82.07-1.18.22c-.36.14-.68.35-.94.62-.26.27-.47.58-.62.94-.15.36-.23.75-.23,1.18s.08.82.23,1.18c.15.36.36.67.62.94.26.27.58.47.94.62.36.14.76.22,1.18.22Z"/>
        <path class="cls-23" d="M183.99,321.53v-8.4h3.46c.74,0,1.38.12,1.91.35.53.24.94.58,1.23,1.03.29.45.43.98.43,1.61s-.14,1.15-.43,1.59c-.29.44-.7.79-1.23,1.03-.53.24-1.17.37-1.91.37h-2.58l.68-.72v3.14h-1.56ZM185.55,318.55l-.68-.77h2.51c.69,0,1.21-.15,1.55-.44.35-.29.52-.7.52-1.23s-.17-.94-.52-1.23c-.35-.29-.87-.44-1.55-.44h-2.51l.68-.77v4.87Z"/>
        <path class="cls-23" d="M194.14,320.21h4.74v1.32h-6.3v-8.4h6.13v1.32h-4.57v5.76ZM194.02,316.62h4.18v1.28h-4.18v-1.28Z"/>
        <path class="cls-23" d="M200.62,321.53v-8.4h3.46c.74,0,1.38.12,1.91.35.53.24.94.58,1.23,1.03.29.45.43.98.43,1.61s-.14,1.14-.43,1.58c-.29.44-.7.78-1.23,1.02-.53.24-1.17.36-1.91.36h-2.58l.68-.7v3.14h-1.56ZM202.18,318.55l-.68-.76h2.51c.69,0,1.21-.15,1.55-.44.35-.3.52-.71.52-1.24s-.17-.94-.52-1.23c-.35-.29-.87-.44-1.55-.44h-2.51l.68-.77v4.87ZM206.11,321.53l-2.12-3.05h1.67l2.14,3.05h-1.68Z"/>
      </g>
      <g>
        <path class="cls-23" d="M55.01,349.21h4.74v1.32h-6.3v-8.4h6.13v1.32h-4.57v5.76ZM54.89,345.62h4.18v1.28h-4.18v-1.28Z"/>
        <path class="cls-23" d="M61.36,350.53v-8.9h1.49v8.9h-1.49Z"/>
        <path class="cls-23" d="M65.57,343.07c-.28,0-.51-.09-.69-.26-.18-.18-.27-.39-.27-.65,0-.24.09-.45.27-.62.18-.18.41-.26.69-.26s.51.08.69.25c.18.16.27.37.27.63s-.09.47-.26.65c-.18.18-.41.27-.7.27ZM64.82,350.53v-6.41h1.49v6.41h-1.49Z"/>
        <path class="cls-23" d="M67.43,345.37v-1.2h4.27v1.2h-4.27ZM70.69,350.61c-.7,0-1.25-.18-1.63-.55-.38-.36-.58-.9-.58-1.6v-5.76h1.49v5.71c0,.3.08.54.24.71.16.17.38.25.67.25.33,0,.6-.09.82-.26l.43,1.07c-.18.14-.4.25-.66.32-.26.07-.52.11-.78.11Z"/>
        <path class="cls-23" d="M76.16,350.61c-.71,0-1.33-.14-1.87-.43-.53-.28-.94-.67-1.24-1.16s-.44-1.06-.44-1.7.14-1.21.43-1.7c.28-.49.68-.88,1.18-1.16.5-.28,1.07-.43,1.71-.43s1.18.14,1.67.41c.49.28.87.66,1.15,1.16.28.5.42,1.08.42,1.76,0,.06,0,.13,0,.21s0,.16-.02.22h-5.34v-1h4.55l-.6.31c0-.36-.07-.68-.22-.97-.16-.28-.37-.5-.64-.66-.27-.16-.59-.23-.96-.23s-.68.08-.97.23c-.28.16-.5.38-.65.67-.15.29-.23.62-.23,1v.24c0,.38.09.72.26,1.02s.42.53.74.69.69.25,1.12.25c.36,0,.68-.06.97-.18.29-.12.54-.3.77-.53l.82.94c-.3.34-.66.59-1.1.77-.44.18-.93.26-1.49.26Z"/>
        <path class="cls-23" d="M84.07,350.53v-8.4h1.28l3.67,6.13h-.67l3.61-6.13h1.28l.02,8.4h-1.5v-6.08h.3l-3.05,5.14h-.71l-3.12-5.14h.36v6.08h-1.49Z"/>
        <path class="cls-23" d="M97.32,350.61c-.48,0-.9-.08-1.26-.25-.36-.16-.64-.39-.83-.68-.2-.29-.29-.62-.29-.99s.09-.68.26-.97c.17-.29.45-.52.85-.68s.91-.25,1.56-.25h1.86v1h-1.75c-.5,0-.85.08-1.03.25-.18.16-.27.37-.27.62,0,.26.11.48.32.64.22.16.52.24.9.24s.7-.08.99-.25.51-.42.64-.74l.24.9c-.14.38-.4.67-.77.88-.37.21-.84.31-1.42.31ZM99.33,350.53v-1.31l-.07-.26v-2.27c0-.44-.13-.78-.4-1.03-.27-.24-.67-.37-1.22-.37-.35,0-.7.06-1.04.17-.34.11-.64.27-.89.47l-.59-1.09c.35-.26.76-.46,1.24-.6.47-.14.96-.2,1.48-.2.94,0,1.66.22,2.16.67.5.45.76,1.14.76,2.06v3.76h-1.42Z"/>
        <path class="cls-23" d="M106.31,344.04c.52,0,.98.1,1.37.3.4.2.71.51.95.92.24.42.35.95.35,1.6v3.67h-1.5v-3.48c0-.57-.13-.99-.4-1.27-.26-.28-.64-.42-1.13-.42-.35,0-.67.07-.94.22-.27.14-.48.36-.63.64-.15.28-.22.64-.22,1.07v3.24h-1.49v-6.41h1.43v1.74l-.25-.54c.22-.41.54-.72.97-.95.43-.22.92-.34,1.48-.34Z"/>
        <path class="cls-23" d="M113.78,350.61c-.65,0-1.23-.14-1.75-.43-.52-.28-.92-.67-1.22-1.17-.3-.5-.44-1.06-.44-1.69s.15-1.22.44-1.7c.3-.49.7-.87,1.21-1.16.51-.28,1.1-.43,1.75-.43s1.25.14,1.77.43c.52.28.92.67,1.21,1.16.29.49.44,1.06.44,1.7s-.15,1.21-.44,1.7-.7.88-1.22,1.16c-.52.28-1.11.43-1.76.43ZM113.78,349.34c.37,0,.7-.08.98-.25.29-.16.51-.4.68-.71.16-.31.25-.66.25-1.06s-.08-.76-.25-1.06c-.16-.3-.39-.53-.68-.7-.29-.16-.61-.25-.97-.25s-.68.08-.97.25c-.29.16-.52.4-.68.7-.17.3-.25.65-.25,1.06s.08.75.25,1.06c.17.31.4.54.68.71.29.16.61.25.96.25Z"/>
        <path class="cls-23" d="M118.65,350.53v-6.41h1.43v1.76l-.17-.52c.18-.43.48-.76.9-.99.42-.23.92-.34,1.52-.34v1.43c-.06,0-.11-.01-.17-.02-.06,0-.11,0-.16,0-.58,0-1.03.16-1.37.49-.34.33-.5.83-.5,1.5v3.1h-1.49Z"/>
        <path class="cls-23" d="M131.02,350.65c-.65,0-1.24-.11-1.79-.32-.54-.21-1.02-.51-1.42-.91-.4-.39-.72-.85-.94-1.37-.22-.52-.34-1.1-.34-1.73s.11-1.21.34-1.73c.22-.52.54-.98.95-1.37.41-.39.88-.69,1.43-.91.54-.21,1.14-.32,1.79-.32.69,0,1.32.12,1.88.35.57.24,1.05.59,1.44,1.05l-1.01.95c-.31-.33-.66-.57-1.03-.74-.38-.16-.78-.25-1.21-.25s-.84.07-1.21.22c-.36.14-.68.35-.95.61-.27.26-.48.58-.63.94-.15.36-.23.76-.23,1.19s.08.83.23,1.19c.15.36.36.67.63.94.27.26.58.47.95.61.36.14.77.22,1.21.22s.84-.08,1.21-.25c.38-.16.72-.41,1.03-.75l1.01.95c-.39.46-.87.82-1.44,1.06-.57.24-1.2.36-1.9.36Z"/>
        <path class="cls-23" d="M138.36,350.61c-.65,0-1.23-.14-1.75-.43-.52-.28-.92-.67-1.22-1.17-.3-.5-.44-1.06-.44-1.69s.15-1.22.44-1.7c.3-.49.7-.87,1.21-1.16.51-.28,1.1-.43,1.75-.43s1.25.14,1.77.43c.52.28.92.67,1.21,1.16.29.49.44,1.06.44,1.7s-.15,1.21-.44,1.7-.7.88-1.22,1.16c-.52.28-1.11.43-1.76.43ZM138.36,349.34c.37,0,.7-.08.98-.25.29-.16.51-.4.68-.71.16-.31.25-.66.25-1.06s-.08-.76-.25-1.06c-.16-.3-.39-.53-.68-.7-.29-.16-.61-.25-.97-.25s-.68.08-.97.25c-.29.16-.52.4-.68.7-.17.3-.25.65-.25,1.06s.08.75.25,1.06c.17.31.4.54.68.71.29.16.61.25.96.25Z"/>
        <path class="cls-23" d="M143.59,350.61c-.28,0-.52-.09-.71-.28-.19-.19-.29-.43-.29-.73s.1-.53.29-.71c.19-.18.43-.27.71-.27.26,0,.49.09.68.27.19.18.29.42.29.71s-.1.54-.29.73c-.19.19-.42.28-.68.28Z"/>
        <path class="cls-23" d="M145.63,352.35l.68-2.68.23.9c-.29,0-.53-.09-.71-.26-.19-.17-.28-.41-.28-.71s.09-.53.28-.71c.19-.18.42-.27.69-.27.29,0,.52.09.7.28.18.18.27.42.27.71,0,.09,0,.18-.02.27-.02.09-.04.2-.08.32-.04.12-.1.27-.17.46l-.62,1.7h-.96Z"/>
        <path class="cls-23" d="M152.41,350.53v-8.4h1.56v7.08h4.39v1.32h-5.95Z"/>
        <path class="cls-23" d="M158.54,345.37v-1.2h4.27v1.2h-4.27ZM161.81,350.61c-.7,0-1.25-.18-1.63-.55-.38-.36-.58-.9-.58-1.6v-5.76h1.49v5.71c0,.3.08.54.24.71.16.17.38.25.67.25.33,0,.6-.09.82-.26l.43,1.07c-.18.14-.4.25-.66.32-.26.07-.52.11-.78.11Z"/>
        <path class="cls-23" d="M166.98,350.61c-.62,0-1.17-.14-1.66-.41-.49-.27-.88-.65-1.16-1.15-.28-.49-.42-1.07-.42-1.73s.14-1.23.42-1.73c.28-.5.67-.88,1.16-1.15.49-.27,1.05-.41,1.66-.41.54,0,1.02.12,1.44.35.42.24.76.6,1.01,1.08.25.48.37,1.1.37,1.85s-.12,1.36-.36,1.85c-.24.49-.57.85-.99,1.09-.42.24-.91.35-1.47.35ZM167.16,349.34c.36,0,.68-.08.97-.25.28-.16.51-.4.68-.71.17-.31.26-.66.26-1.06s-.09-.76-.26-1.06c-.17-.3-.4-.53-.68-.7-.28-.16-.61-.25-.97-.25s-.68.08-.97.25c-.28.16-.51.4-.68.7-.17.3-.26.65-.26,1.06s.09.75.26,1.06c.17.31.4.54.68.71.28.16.61.25.97.25ZM169.11,350.53v-1.51l.04-1.7-.12-1.7v-3.98h1.51v8.9h-1.43Z"/>
        <path class="cls-23" d="M173,350.61c-.28,0-.52-.09-.71-.28-.19-.19-.29-.43-.29-.73s.1-.53.29-.71c.19-.18.43-.27.71-.27.26,0,.49.09.68.27.19.18.29.42.29.71s-.1.54-.29.73c-.19.19-.42.28-.68.28Z"/>
      </g>
    </g>
  </g>
</svg>